<svg xmlns="http://www.w3.org/2000/svg" width="37" height="37" viewBox="0 0 37 37"><defs><style>.a{fill:none;}.b{fill:#2f5dc4;}</style></defs><g transform="translate(0 0.016)"><g transform="translate(0 0)"><rect class="a" width="37" height="37" transform="translate(0 -0.016)"/></g><g transform="translate(3.803 1.884)"><path class="b" d="M30.787,12l1.831-1.908a1.45,1.45,0,0,0,0-2.137,1.373,1.373,0,0,0-1.068-.458,1.526,1.526,0,0,0-1.068.458L28.574,9.783A14.574,14.574,0,0,0,21.02,6.655v-1.6h1.526a1.526,1.526,0,1,0,0-3.052h-6.1a1.526,1.526,0,1,0,0,3.052h1.526v1.6A14.5,14.5,0,1,0,30.787,12ZM19.494,32.522A11.446,11.446,0,1,1,30.94,21.076,11.446,11.446,0,0,1,19.494,32.522Z" transform="translate(-4.984 -2)"/><path class="b" d="M30.393,22.867H25.052V17.526a1.526,1.526,0,1,0-3.052,0V25.92h8.393a1.526,1.526,0,1,0,0-3.052Z" transform="translate(-9.016 -5.317)"/></g></g></svg>