<svg xmlns="http://www.w3.org/2000/svg" width="37" height="38" viewBox="0 0 37 38"><defs><style>.a{fill:none;}.b{fill:#2f5dc4;}</style></defs><g transform="translate(-0.459 0.092)"><rect class="a" width="37" height="38" transform="translate(0.459 -0.092)"/><g transform="translate(4.739 1.58)"><path class="b" d="M32.852,14.636H29.693V10.687A8.687,8.687,0,0,0,21.005,2h-1.58a8.687,8.687,0,0,0-8.687,8.687v3.949H7.58A1.58,1.58,0,0,0,6,16.216V35.17a1.58,1.58,0,0,0,1.58,1.58H32.852a1.58,1.58,0,0,0,1.58-1.58V16.216A1.58,1.58,0,0,0,32.852,14.636ZM13.9,10.687a5.528,5.528,0,0,1,5.528-5.528h1.58a5.528,5.528,0,0,1,5.528,5.528v3.949H13.9Zm17.375,22.9H9.159V17.8H31.272Z" transform="translate(-6 -2)"/><path class="b" d="M26.218,29.067a3.159,3.159,0,1,0-4.739,2.764v1.974a1.58,1.58,0,1,0,3.159,0V31.831A3.159,3.159,0,0,0,26.218,29.067Z" transform="translate(-8.922 -7.032)"/></g></g></svg>