<svg xmlns="http://www.w3.org/2000/svg" width="190.278" height="144.51" viewBox="0 0 190.278 144.51"><defs><style>.a{fill:#e6e6e6;}.b{fill:#fff;}.c{fill:#ffb8b8;}.d{fill:#3f3d56;}.e{fill:#2f2e41;}.f{fill:#2f5dc4;}</style></defs><g transform="translate(-347 -2267.404)"><rect class="a" width="138.895" height="86.491" transform="translate(347 2277.579)"/><rect class="b" width="25.439" height="16.535" transform="translate(356.314 2317.645)"/><rect class="b" width="25.439" height="16.535" transform="translate(387.923 2317.645)"/><rect class="b" width="25.439" height="16.535" transform="translate(419.533 2317.645)"/><rect class="b" width="25.439" height="16.535" transform="translate(451.142 2317.645)"/><rect class="b" width="25.439" height="16.535" transform="translate(356.314 2341.049)"/><rect class="b" width="25.439" height="16.535" transform="translate(387.923 2341.049)"/><rect class="b" width="25.439" height="16.535" transform="translate(419.533 2341.049)"/><rect class="b" width="25.439" height="16.535" transform="translate(451.142 2341.049)"/><path class="c" d="M894.324,533.7a2.305,2.305,0,0,1,.487-3.5l-1.828-7.986,3.988,1.492,1.125,7.355a2.318,2.318,0,0,1-3.771,2.641Z" transform="translate(-362.937 1831.739)"/><path class="d" d="M886.808,471.9l-3.505-6.777.474-17.065.225.475c.262.553,6.413,13.573,5.974,17.932l.7,3.983Z" transform="translate(-355.697 1887.2)"/><path class="c" d="M721.305,562.034h2.811l1.337-10.842H721.3Z" transform="translate(-192.48 1847.155)"/><path class="c" d="M611.134,554.735l2.708.753,4.193-10.087-4-1.111Z" transform="translate(-110.081 1852.317)"/><path class="e" d="M773.308,728.588l5.333,1.483h0a3.527,3.527,0,0,1,2.453,4.344l-.031.11-8.732-2.428Z" transform="translate(-272.7 1677.389)"/><path class="e" d="M795.258,550.665l-5.673-40.616-12.252,40.387-9.634-3.289,13.807-54.079.091-.006,14.464-1.006,10.45,55.328Z" transform="translate(-269.235 1854.297)"/><path class="f" d="M829.351,414.554a21.522,21.522,0,0,0-12.381-1.6s-3.783,9.126,0,12.76L818,434.844s9.629,5.732,12.839-.917l-.459-7.566s2.293-3.629.459-6.285a8.777,8.777,0,0,1-1.49-5.522Z" transform="translate(-304.828 1913.67)"/><path class="d" d="M868.7,460.068l.926-19.205L867,418.016l.12-.018c3.436-.518,4.538,5.4,4.583,5.654l5.981,33.814Z" transform="translate(-343.506 1909.71)"/><path class="d" d="M796.1,455.267l-10.573-1.175,0-.116c.038-1.565.948-38.367,3.5-40.974,2.565-2.622,7.405-1.487,7.61-1.438l.1.025-.87,15.572Z" transform="translate(-282.565 1914.711)"/><path class="c" d="M802.431,479.3a2.306,2.306,0,0,1-3-1.868l-8.04-1.575,2.983-3.037,7.178,1.961a2.318,2.318,0,0,1,.881,4.519Z" transform="translate(-286.953 1868.686)"/><path class="d" d="M769.114,435.248l-2.62-.563c-3.867,1.163-10.618-2.932-13.346-4.75-.513-.342-.68-1.02-.495-2.015a5.876,5.876,0,0,1,2.16-3.508l9.609-7.619,2.425-.406.72,4.082-6.122,6.576,9.013,4.905Z" transform="translate(-257.926 1910.89)"/><path class="e" d="M814.061,359.306v-5.294a8.445,8.445,0,1,1,16.889,0v5.294a1.136,1.136,0,0,1-1.134,1.134H815.2A1.136,1.136,0,0,1,814.061,359.306Z" transform="translate(-303.909 1963.857)"/><circle class="c" cx="6.191" cy="6.191" r="6.191" transform="translate(512.065 2311.864)"/><path class="e" d="M820.523,357.724a.63.63,0,0,1-.148-.5l.733-5.107a.631.631,0,0,1,.357-.484,12.782,12.782,0,0,1,11.283-.007.635.635,0,0,1,.36.513l.49,5.114a.63.63,0,0,1-.627.69h-1.242a.633.633,0,0,1-.571-.364l-.536-1.148a.378.378,0,0,0-.718.113l-.106.847a.631.631,0,0,1-.625.552H821a.63.63,0,0,1-.476-.217Z" transform="translate(-308.627 1960.307)"/><rect class="b" width="25.439" height="16.535" transform="translate(356.314 2294.242)"/><rect class="b" width="25.439" height="16.535" transform="translate(387.923 2294.242)"/><rect class="b" width="25.439" height="16.535" transform="translate(419.533 2294.242)"/><rect class="b" width="25.439" height="16.535" transform="translate(451.142 2294.242)"/><circle class="b" cx="3.816" cy="3.816" r="3.816" transform="translate(379.561 2280.123)"/><circle class="b" cx="3.816" cy="3.816" r="3.816" transform="translate(442.649 2280.123)"/><rect class="a" width="3.053" height="17.553" transform="translate(381.851 2267.404)"/><rect class="a" width="3.053" height="17.553" transform="translate(444.939 2267.404)"/><path class="f" d="M619.206,269.355a5.736,5.736,0,1,1-.889-3.073A5.737,5.737,0,0,1,619.206,269.355Z" transform="translate(-149.592 2033.154)"/><path class="b" d="M625.982,271.662l-5.663,5.662c-.356-.551-2.339-3.112-2.339-3.112a8.023,8.023,0,0,1,.812-.716l1.644,2.192,4.882-4.882A5.729,5.729,0,0,1,625.982,271.662Z" transform="translate(-157.256 2027.774)"/></g></svg>