<svg xmlns="http://www.w3.org/2000/svg" width="124.546" height="98.776" viewBox="0 0 124.546 98.776"><defs><style>.a{fill:#f2f2f2;}.b{fill:#fff;}.c{fill:#e4e4e4;}.d{fill:#2f5dc4;}.e{fill:#2f2e41;}.f{fill:#ffb6b6;}.g{fill:#cacaca;}</style></defs><g transform="translate(0 4.329)"><path class="a" d="M618.922,630.259l-3.324,3.06,2.642-4.432a34.232,34.232,0,0,0-5.485-7.036s-7.062,6.766-7.062,12.084,3.162,7.175,7.062,7.175,7.062-1.857,7.062-7.175A9.329,9.329,0,0,0,618.922,630.259Z" transform="translate(-542.438 -546.774)"/><path class="b" d="M648.427,632.07v.262a14,14,0,0,1-1.538,7.1c-.014.025-.03.048-.044.073l-.113-.069-.108-.068a13.845,13.845,0,0,0,1.529-7.021c0-.086,0-.173,0-.26,0-1.125-.073-2.263-.183-3.369-.008-.086-.017-.173-.026-.26-.153-1.459-.374-2.852-.6-4.063-.016-.086-.032-.171-.049-.256-.391-2.048-.789-3.531-.88-3.859-.01-.04-.017-.062-.018-.068l.123-.035h0l.125-.035c0,.005.023.079.06.217.139.514.5,1.909.854,3.749.016.083.032.169.048.254.184.982.365,2.08.507,3.233q.055.434.1.857c.01.087.019.174.027.26Q648.421,630.5,648.427,632.07Z" transform="translate(-576.122 -545.359)"/><path class="b" d="M633.125,640.206c-.087.012-.175.023-.265.032a7.134,7.134,0,0,1-.732.038,6.963,6.963,0,0,1-3.011-.68l-.165.208a7.222,7.222,0,0,0,3.176.732,7.391,7.391,0,0,0,.781-.042c.088-.009.176-.021.263-.034a7.16,7.16,0,0,0,2.07-.627l-.164-.21A6.939,6.939,0,0,1,633.125,640.206Z" transform="translate(-561.686 -561.458)"/><path class="b" d="M626.93,653.955q-.134.008-.269.008h-.083a7,7,0,0,1-5.746-3c-.052.077-.1.153-.154.231a7.261,7.261,0,0,0,5.9,3.03h.109c.091,0,.18,0,.27-.008a7.222,7.222,0,0,0,3.848-1.35c-.042-.077-.083-.153-.126-.23A6.953,6.953,0,0,1,626.93,653.955Z" transform="translate(-554.838 -570.864)"/><path class="b" d="M622.337,665.176c-.091.008-.182.013-.273.017s-.195.007-.292.007a7.02,7.02,0,0,1-6.73-5.051c-.058.105-.117.209-.173.314a7.277,7.277,0,0,0,6.9,5c.1,0,.195,0,.291-.007s.183-.008.274-.014a7.255,7.255,0,0,0,4.789-2.337c-.027-.1-.058-.191-.09-.287a7,7,0,0,1-4.7,2.362Z" transform="translate(-550.032 -578.465)"/><circle class="c" cx="17.035" cy="17.035" r="17.035" transform="translate(0 -3.061)"/><circle class="d" cx="14.196" cy="14.196" r="14.196" transform="translate(2.839 -0.221)"/><circle class="c" cx="17.035" cy="17.035" r="17.035" transform="translate(45.238 -3.061)"/><circle class="b" cx="14.196" cy="14.196" r="14.196" transform="translate(48.077 -0.221)"/><circle class="c" cx="17.035" cy="17.035" r="17.035" transform="translate(90.476 -3.061)"/><circle class="b" cx="14.196" cy="14.196" r="14.196" transform="translate(93.315 -0.221)"/><path class="b" d="M312.832,247.36l-.076,0a1.559,1.559,0,0,1-1.156-.6l-2.178-2.8a1.562,1.562,0,0,1,.274-2.189l.078-.061a1.562,1.562,0,0,1,2.189.274,1.388,1.388,0,0,0,2.1.1l4.422-4.667a1.56,1.56,0,0,1,2.206-.06l.072.068a1.56,1.56,0,0,1,.06,2.205l-6.861,7.242A1.558,1.558,0,0,1,312.832,247.36Z" transform="translate(-297.004 -228.252)"/><path class="e" d="M502.87,190.128H491.657v-9.751a2.281,2.281,0,0,1,2.318-2.237H497.7a5.086,5.086,0,0,1,5.168,4.988Z" transform="translate(-448.074 -179.603)"/><path class="f" d="M326.653,515.433h-2.128l-1.013-8.21h3.142Z" transform="translate(-267.706 -423.309)"/><path class="e" d="M550.945,719.407h-6.863v-.087a2.672,2.672,0,0,1,2.671-2.671h4.192Z" transform="translate(-491.454 -625.219)"/><path class="f" d="M212.918,515.433H210.79l-1.013-8.21h3.142Z" transform="translate(-173.59 -423.309)"/><path class="e" d="M437.209,719.407h-6.863v-.087a2.672,2.672,0,0,1,2.671-2.671h4.192Z" transform="translate(-397.339 -625.219)"/><path class="f" d="M236.223,172.448l-1.389,8.855,13.2.174-1.736-8.507Z" transform="translate(-194.325 -146.283)"/><path class="e" d="M453.395,377.105l-4.2,11.19-.521,46.375h3.559l8.508-37.26,7.813,36.287h3.472l-2.431-40.8s.717-8.189-2.952-13.022l-.893-2.58Z" transform="translate(-412.503 -344.247)"/><path class="f" d="M545.624,318.55a2.6,2.6,0,0,1-1.669-3.629l-5.614-18.3,4.129-.818L547.6,313.74a2.619,2.619,0,0,1-1.981,4.809Z" transform="translate(-486.705 -276.968)"/><path class="c" d="M482.918,273.05l-9.1-.176a1.189,1.189,0,0,1-1.127-.9,35.792,35.792,0,0,1-.991-11.973,7.315,7.315,0,1,1,14.342,2.7,60.155,60.155,0,0,0-1.922,9.246,1.187,1.187,0,0,1-.95,1.075h0a1.182,1.182,0,0,1-.229.023Z" transform="translate(-431.427 -241.995)"/><path class="f" d="M353.994,266.3a2.553,2.553,0,0,1,.134.379l11.385,3.869,2.2-1.922,3.334,2.941-3.564,3.781a1.94,1.94,0,0,1-2.294.4l-12.183-6.223a2.545,2.545,0,1,1,.987-3.222Z" transform="translate(-330.133 -251.321)"/><path class="c" d="M444.24,268.519a1.09,1.09,0,0,1,.383-.824l4.169-3.551a3.03,3.03,0,1,1,4.576,3.973L450.4,272.74a1.091,1.091,0,0,1-1.636.232l-4.15-3.625A1.09,1.09,0,0,1,444.24,268.519Z" transform="translate(-408.836 -249.908)"/><path class="c" d="M527.283,278.477a1.09,1.09,0,0,1-.555-.72l-1.233-5.336a3.03,3.03,0,1,1,5.634-2.233l2.737,4.764a1.091,1.091,0,0,1-.547,1.559l-5.129,2.015a1.09,1.09,0,0,1-.907-.05Z" transform="translate(-475.898 -254.19)"/><ellipse class="e" cx="1.941" cy="2.588" rx="1.941" ry="2.588" transform="translate(50.275 -0.759) rotate(-66.869)"/><circle class="f" cx="5.309" cy="5.309" r="5.309" transform="translate(39.857 6.384) rotate(-61.337)"/><path class="e" d="M491.013,176.14h-6.072a1.764,1.764,0,0,0-1.78,1.61,1.725,1.725,0,0,0,1.721,1.84h0a1.725,1.725,0,0,1,1.725,1.725v7.073h9.488v-7.166A5.081,5.081,0,0,0,491.013,176.14Z" transform="translate(-441.04 -177.949)"/><path class="g" d="M386.12,732.486H320.4a.172.172,0,1,1,0-.345H386.12a.172.172,0,1,1,0,.345Z" transform="translate(-306.213 -638.039)"/></g></svg>