<svg xmlns="http://www.w3.org/2000/svg" width="39" height="39" viewBox="0 0 39 39"><defs><style>.a{fill:none;}.b{fill:#2f5dc4;}</style></defs><rect class="a" width="39" height="39"/><g transform="translate(1.625 1.625)"><path class="b" d="M36.125,18.25H34.419A14.706,14.706,0,0,0,21.5,5.331V3.625a1.625,1.625,0,1,0-3.25,0V5.331A14.706,14.706,0,0,0,5.331,18.25H3.625a1.625,1.625,0,1,0,0,3.25H5.331A14.706,14.706,0,0,0,18.25,34.419v1.706a1.625,1.625,0,1,0,3.25,0V34.419A14.706,14.706,0,0,0,34.419,21.5h1.706a1.625,1.625,0,1,0,0-3.25ZM21.5,31.087V28a1.625,1.625,0,1,0-3.25,0v3.087A11.213,11.213,0,0,1,8.663,21.5H11.75a1.625,1.625,0,1,0,0-3.25H8.662A11.213,11.213,0,0,1,18.25,8.662V11.75a1.625,1.625,0,1,0,3.25,0V8.662a11.213,11.213,0,0,1,9.587,9.588H28a1.625,1.625,0,1,0,0,3.25h3.087A11.213,11.213,0,0,1,21.5,31.087Z" transform="translate(-2 -2)"/></g></svg>