<svg xmlns="http://www.w3.org/2000/svg" width="191" height="159.691" viewBox="0 0 191 159.691"><defs><style>.a{fill:#f2f2f2;}.b{fill:#3f3d56;}.c{fill:#fff;}.d{fill:#F5F200;}.e{fill:#2f2e41;}.f{fill:#a0616a;}.g{fill:#e6e6e6;}.h{fill:#ffb8b8;}</style></defs><g transform="translate(0 0)"><ellipse class="a" cx="75.432" cy="3.857" rx="75.432" ry="3.857" transform="translate(14.281 151.977)"/><path class="b" d="M493.526,114.465h-.857V90.99A13.587,13.587,0,0,0,479.082,77.4H429.347A13.587,13.587,0,0,0,415.76,90.99V219.775a13.587,13.587,0,0,0,13.587,13.587h49.735a13.587,13.587,0,0,0,13.587-13.587v-88.6h.857Z" transform="translate(-359.742 -77.403)"/><path class="c" d="M503.523,104.044v128.6a10.147,10.147,0,0,1-10.147,10.147H443.4a10.147,10.147,0,0,1-10.147-10.147v-128.6A10.147,10.147,0,0,1,443.4,93.9h6.063a4.823,4.823,0,0,0,4.464,6.641h28.493a4.823,4.823,0,0,0,4.464-6.641h6.491a10.147,10.147,0,0,1,10.147,10.147Z" transform="translate(-373.488 -90.363)"/><path class="d" d="M618.185,381.822q-.5.26-1.014.493-.469.212-.954.4l-.358.135a19.18,19.18,0,0,1-2.914.8q-.736.145-1.492.227-.624.071-1.26.1c-.3.015-.6.021-.909.021a19.253,19.253,0,0,1-3.592-.336c-.309-.056-.611-.122-.913-.195a19.025,19.025,0,0,1-4.215-1.556c-.12-.06-.24-.124-.36-.186-.178-.094-.351-.193-.525-.3.083-.116.174-.229.266-.341a11.365,11.365,0,0,1,16.9-.879,11.616,11.616,0,0,1,1.084,1.256C618.019,381.584,618.1,381.7,618.185,381.822Z" transform="translate(-504.249 -312.69)"/><circle class="e" cx="9.41" cy="9.41" r="9.41" transform="translate(96.054 40.899)"/><circle class="f" cx="7.003" cy="7.003" r="7.003" transform="translate(95.102 50.8) rotate(-28.663)"/><path class="e" d="M626.77,293.155a9.525,9.525,0,0,1-5.443,1.682,5.837,5.837,0,0,0,2.314.952,19.207,19.207,0,0,1-7.845.044,5.079,5.079,0,0,1-1.642-.564,2.078,2.078,0,0,1-1.014-1.356,2.8,2.8,0,0,1,1.39-2.479,10.256,10.256,0,0,1,8.618-1.722,4.719,4.719,0,0,1,2.552,1.442,2.325,2.325,0,0,1,.215,2.761Z" transform="translate(-514.804 -243.974)"/><path class="b" d="M573.779,230.173a19.284,19.284,0,0,0-10.038,35.751l.124.073q.154.093.309.18c.174.1.347.2.525.3.12.062.24.126.36.186a19.026,19.026,0,0,0,4.215,1.556c.3.073.6.139.913.2a19.253,19.253,0,0,0,3.591.336c.3,0,.606-.006.909-.021q.636-.029,1.26-.1.755-.084,1.492-.227a19.188,19.188,0,0,0,2.914-.8l.358-.135q.485-.186.954-.4.514-.231,1.014-.493a19.455,19.455,0,0,0,7.937-7.708c.009-.017.019-.034.028-.051a19.287,19.287,0,0,0-16.865-28.634Zm16.514,28.383c-.017.03-.032.06-.049.088a18.894,18.894,0,0,1-7.817,7.569q-.492.257-1,.482c-.281.126-.568.246-.857.358-.122.047-.246.094-.371.137a18.37,18.37,0,0,1-2.514.72,18.161,18.161,0,0,1-1.918.3c-.4.043-.8.073-1.2.088-.259.011-.521.017-.782.017a18.594,18.594,0,0,1-3.476-.324,18.349,18.349,0,0,1-2.064-.506,18.957,18.957,0,0,1-3-1.215c-.111-.058-.223-.116-.332-.176-.156-.084-.315-.169-.469-.261-.116-.064-.231-.133-.345-.2-.066-.039-.133-.079-.2-.12a18.873,18.873,0,1,1,26.4-6.958Z" transform="translate(-468.743 -197.435)"/><path class="e" d="M608.135,263.434a1.885,1.885,0,0,0-2.425-1.4,3.05,3.05,0,0,0-1.892,2.4,3.441,3.441,0,0,0,.464,2.6,2.367,2.367,0,0,0,2.346,1.017,2.722,2.722,0,0,0,1.908-2.212,8,8,0,0,0-.2-3.067Z" transform="translate(-507.436 -222.405)"/><path class="e" d="M675.117,270.531a1.885,1.885,0,0,0-2.425-1.4,3.05,3.05,0,0,0-1.892,2.4,3.441,3.441,0,0,0,.464,2.6,2.367,2.367,0,0,0,2.347,1.017,2.722,2.722,0,0,0,1.907-2.212,8,8,0,0,0-.2-3.067Z" transform="translate(-560.065 -227.981)"/><path class="c" d="M226.052,213.044a.959.959,0,0,1-.709-.314l-10.634-11.6a1.29,1.29,0,0,0-.949-.417H157.569a3.22,3.22,0,0,1-3.216-3.216V177.232a3.22,3.22,0,0,1,3.216-3.216h72.8a3.22,3.22,0,0,1,3.216,3.216V197.5a3.22,3.22,0,0,1-3.216,3.216h-2.064A1.288,1.288,0,0,0,227.02,202v10.079a.959.959,0,0,1-.615.9A.97.97,0,0,1,226.052,213.044Z" transform="translate(-154.353 -153.312)"/><path class="b" d="M226.052,213.044a.959.959,0,0,1-.709-.314l-10.634-11.6a1.29,1.29,0,0,0-.949-.417H157.569a3.22,3.22,0,0,1-3.216-3.216V177.232a3.22,3.22,0,0,1,3.216-3.216h72.8a3.22,3.22,0,0,1,3.216,3.216V197.5a3.22,3.22,0,0,1-3.216,3.216h-2.064A1.288,1.288,0,0,0,227.02,202v10.079a.959.959,0,0,1-.615.9A.97.97,0,0,1,226.052,213.044Zm-68.483-38.6a2.791,2.791,0,0,0-2.788,2.788V197.5a2.791,2.791,0,0,0,2.788,2.788h56.192a1.72,1.72,0,0,1,1.264.556l10.634,11.6a.536.536,0,0,0,.932-.362V202a1.717,1.717,0,0,1,1.715-1.715h2.064a2.791,2.791,0,0,0,2.788-2.788V177.232a2.791,2.791,0,0,0-2.788-2.788Z" transform="translate(-154.353 -153.312)"/><circle class="d" cx="2.814" cy="2.814" r="2.814" transform="translate(5.075 24.014)"/><path class="g" d="M245.415,264.262H179.181a1.5,1.5,0,0,1,0-3h66.234a1.5,1.5,0,1,1,0,3Z" transform="translate(-172.681 -221.86)"/><path class="g" d="M223.837,234.493H179.181a1.5,1.5,0,0,1,0-3h44.657a1.5,1.5,0,0,1,0,3Z" transform="translate(-172.681 -198.47)"/><path class="c" d="M683.086,533.978a.959.959,0,0,1-.615-.9V523a1.288,1.288,0,0,0-1.287-1.287H679.12A3.22,3.22,0,0,1,675.9,518.5V498.232a3.22,3.22,0,0,1,3.216-3.216h72.8a3.22,3.22,0,0,1,3.216,3.216V518.5a3.22,3.22,0,0,1-3.216,3.216H695.729a1.29,1.29,0,0,0-.949.417l-10.634,11.6a.96.96,0,0,1-.709.314.974.974,0,0,1-.352-.067Z" transform="translate(-564.138 -405.523)"/><path class="b" d="M683.086,533.978a.959.959,0,0,1-.615-.9V523a1.288,1.288,0,0,0-1.287-1.287H679.12A3.22,3.22,0,0,1,675.9,518.5V498.232a3.22,3.22,0,0,1,3.216-3.216h72.8a3.22,3.22,0,0,1,3.216,3.216V518.5a3.22,3.22,0,0,1-3.216,3.216H695.729a1.29,1.29,0,0,0-.949.417l-10.634,11.6a.96.96,0,0,1-.709.314.974.974,0,0,1-.352-.067Zm-3.966-38.533a2.791,2.791,0,0,0-2.788,2.788V518.5a2.791,2.791,0,0,0,2.788,2.788h2.064A1.717,1.717,0,0,1,682.9,523v10.079a.536.536,0,0,0,.932.362l10.634-11.6a1.719,1.719,0,0,1,1.264-.556h56.192a2.791,2.791,0,0,0,2.788-2.788V498.232a2.791,2.791,0,0,0-2.788-2.788Z" transform="translate(-564.138 -405.523)"/><path class="d" d="M529.949,684.977a19.087,19.087,0,0,1-20.069.319,11.6,11.6,0,0,1,2.014-2.711,11.45,11.45,0,0,1,17.981,2.265C529.9,684.892,529.925,684.934,529.949,684.977Z" transform="translate(-433.692 -550.248)"/><circle class="e" cx="9.472" cy="9.472" r="9.472" transform="translate(75.912 105.537)"/><circle class="h" cx="7.05" cy="7.05" r="7.05" transform="translate(76.678 121.114) rotate(-61.337)"/><path class="e" d="M522.25,594.954a9.588,9.588,0,0,0,5.48,1.693,5.876,5.876,0,0,1-2.329.958,19.335,19.335,0,0,0,7.9.044,5.109,5.109,0,0,0,1.653-.568,2.093,2.093,0,0,0,1.021-1.365,2.82,2.82,0,0,0-1.4-2.5,10.324,10.324,0,0,0-8.676-1.734,4.751,4.751,0,0,0-2.569,1.452,2.341,2.341,0,0,0-.216,2.78Z" transform="translate(-443.412 -481.079)"/><path class="b" d="M484.825,579.779a19.281,19.281,0,1,1,10.408-3.047A19.28,19.28,0,0,1,484.825,579.779Zm0-38.144a18.86,18.86,0,1,0,18.858,18.859A18.86,18.86,0,0,0,484.825,541.635Z" transform="translate(-398.861 -441.823)"/><circle class="d" cx="2.814" cy="2.814" r="2.814" transform="translate(118.008 92.588)"/><path class="g" d="M772.415,584.262H706.181a1.5,1.5,0,1,1,0-3h66.234a1.5,1.5,0,1,1,0,3Z" transform="translate(-586.747 -473.286)"/><path class="g" d="M750.837,554.493H706.181a1.5,1.5,0,1,1,0-3h44.656a1.5,1.5,0,0,1,0,3Z" transform="translate(-586.747 -449.896)"/><ellipse class="a" cx="5.251" cy="0.583" rx="5.251" ry="0.583" transform="translate(113.606 129.207)"/><ellipse class="a" cx="5.251" cy="0.583" rx="5.251" ry="0.583" transform="translate(66.676 60.633)"/></g></svg>