<svg xmlns="http://www.w3.org/2000/svg" xmlns:xlink="http://www.w3.org/1999/xlink" width="205" height="151.795" viewBox="0 0 205 151.795"><defs><style>.a,.v{fill:#F5F200;}.a,.e{opacity:0.1;}.b{fill:#3a3768;}.c{opacity:0.05;}.d{fill:#efc6cd;}.f{fill:#fff;}.g{fill:#d3dae1;}.h{fill:url(#a);}.i{fill:#585b8a;}.j{opacity:0.2;}.k{fill:#636992;}.l{fill:#ffd6d6;}.m{fill:#dce6f2;}.n{fill:#565988;}.o{fill:#505484;}.p{fill:#575988;}.q{fill:#d28690;}.r{fill:#575989;}.s{fill:#353045;}.t{fill:#f0f3f7;}.u{fill:#663d5c;}.w{opacity:0.3;}.x{opacity:0.15;}.y{fill:#ffd037;}</style><linearGradient id="a" x1="0.5" y1="1" x2="0.5" gradientUnits="objectBoundingBox"><stop offset="0" stop-color="gray" stop-opacity="0.251"/><stop offset="0.54" stop-color="gray" stop-opacity="0.122"/><stop offset="1" stop-color="gray" stop-opacity="0.102"/></linearGradient></defs><g transform="translate(-336 -192.053)"><path class="a" d="M312.522,86.137c-.036.167-.069.334-.109.5a53.714,53.714,0,0,1-6.238,16.18c-.1.167-.2.334-.3.5a46.5,46.5,0,0,1-7.032,8.876,21.317,21.317,0,0,1-5.051,3.879,28.6,28.6,0,0,1-8.99,2.46c-3.233.49-6.512.9-9.781,1.341q-1.742.231-3.464.49c-3.158.468-6.294,1.008-9.355,1.726a54.842,54.842,0,0,0-10.915,3.673q-.415.188-.821.4c-.27.135-.543.272-.809.411s-.53.278-.791.421c-.135.073-.27.146-.4.223s-.265.145-.394.22c-.391.218-.774.441-1.157.667l-.015.009c-.253.148-.5.3-.751.453-1.416.86-2.8,1.757-4.187,2.661l-.871.563-1.35.873c-.263.171-.531.342-.8.511-.188.124-.376.248-.58.376-.984.62-1.981,1.228-3,1.808-.242.139-.486.278-.732.413a41.616,41.616,0,0,1-6.463,2.914l-.03.011a29.48,29.48,0,0,1-3.432.969c-.67.146-1.343.267-2.022.359a21.68,21.68,0,0,1-5.483.077c-3.581-.415-6.936-1.789-10.515-2.253-7.368-.939-14.524,2.086-21.452,4.456q-2.556.873-5.149,1.635c-1.149.34-2.3.661-3.464.971a130.356,130.356,0,0,1-21.725,3.81,61.186,61.186,0,0,1-9.229.2,33.887,33.887,0,0,1-3.462-.376,22.038,22.038,0,0,1-10.436-4.168,20.38,20.38,0,0,1-5.415-6.947,30.317,30.317,0,0,1-2.8-8.363c-.071-.4-.135-.794-.188-1.192q-.141-1.021-.21-2.054a29.4,29.4,0,0,1,1.292-10.862c1.239-3.928,3.3-7.7,4.213-11.657q.056-.252.107-.5a17.353,17.353,0,0,0,.276-1.819c.464-4.863-1.314-9.6-2.709-14.36-.049-.165-.1-.332-.145-.5q-.225-.792-.432-1.583a33,33,0,0,1-.5-15.431c.036-.167.079-.334.12-.5a22.592,22.592,0,0,1,4.247-8.7,33.679,33.679,0,0,1,8.008-6.932q2.21-1.446,4.57-2.7,1.69-.9,3.462-1.707a68.188,68.188,0,0,1,30.965-5.962c.563.024,1.127.054,1.69.1s1.179.09,1.769.145a127.006,127.006,0,0,1,20.232,4.044c2.229.591,4.454,1.2,6.677,1.793.99.263,1.977.526,2.967.781,4.846,1.252,9.764,2.387,14.743,3.233q1.729.3,3.462.545a99.181,99.181,0,0,0,12.109,1.027q2.364.047,4.73-.041,1.194-.043,2.39-.13c8.234-.58,16.191-2.522,24.162-4.336q1.729-.394,3.464-.777c1.517-.334,3.034-.657,4.559-.956a43.147,43.147,0,0,1,26.766,3.055,12.692,12.692,0,0,1,5.237,3.568,11.185,11.185,0,0,1,1.765,5.6c.325,2.768.537,5.571.618,8.389,0,.165,0,.332.011.5A75.306,75.306,0,0,1,312.522,86.137Z" transform="translate(225.87 153.994)"/><path class="a" d="M258.984,103.164h-.62v.5h.7Zm-7.028,0a.032.032,0,0,0,0,.013c-.017.137-.036.274-.054.413v.075h5.37v-.03l.376-.471Zm-14.392,0V86.984h6.178c-.066-.043-.133-.088-.2-.13l-.09-.058-.116-.071c-.068-.039-.135-.079-.207-.116s-.115-.064-.175-.1l-.041-.023h-5.346V85.6l-.145.056-.152.071h-.011l-.032.017-.1.051-.1.051c-.094.051-.188.107-.282.165l-.09.06-.188.12c-.242.161-.481.33-.727.488-.062.039-.124.079-.188.115-.133.079-.27.154-.411.222a1.569,1.569,0,0,1-.188.081l-.1.039-.094.032h0a4.4,4.4,0,0,1-.676.177v15.817h-9.263c0,.019.013.034.019.053.051.15.1.3.15.449H234.1V121h.141l.163.009.295.017.471.056.216.021.235.024h.036l.415.051.088.011.2.028.287.041h0l.689-.03h0l.094.017a.653.653,0,0,1,.116.019v-17.6h14.334v-.075c.019-.139.038-.276.054-.413a.033.033,0,0,1,0-.013Zm21.42,0h-.62v.5h.7Zm-7.415,0c-.023.167-.043.334-.066.5h5.988l.407-.5Zm-14.006,0V86.984h6.178c-.066-.043-.133-.088-.2-.13l-.09-.058-.116-.071c-.068-.039-.135-.079-.207-.116s-.115-.064-.175-.1l-.041-.023h-5.346V85.6l-.145.056-.152.071h-.011l-.032.017-.1.051-.1.051c-.094.051-.188.107-.282.165l-.09.06-.188.12c-.242.161-.481.33-.727.488-.062.039-.124.079-.188.115-.133.079-.27.154-.411.222a1.567,1.567,0,0,1-.188.081l-.1.039-.094.032h0a4.4,4.4,0,0,1-.676.177v15.817h-9.263c0,.019.013.034.019.053.051.148.1.3.152.449h9.1V121h.141l.163.009.295.017.471.058.216.021.235.024h.036l.415.051.088.011.2.028.287.041h0l.689-.03h0l.094.017a.653.653,0,0,1,.116.019v-17.6h13.959c.023-.167.043-.334.066-.5Zm46.855-33.693h38.956c0-.167,0-.334-.011-.5H284.418V49.328q-1.735.376-3.464.777V68.972H238.586l-.107-.1.161-.143h0L254.4,54.572q-2.366.09-4.73.041L237.561,65.493V53.59q-1.735-.246-3.462-.545v11.9l-17.7-15.913c-2.223-.6-4.448-1.2-6.677-1.793l24.077,21.638-.107.1h-44.2V43.21q-.884-.083-1.769-.145c-.563-.041-1.127-.071-1.69-.1v26h-30.97V48.932q-1.754.8-3.462,1.707V68.972H134.77c-.041.165-.085.332-.12.5H151.6V86.485H135.581c.047.167.1.334.145.5H151.6v16.18H138.159q-.051.25-.107.5H151.6V148.9c1.127.175,2.293.3,3.462.376V103.666h30.965v41.6c1.162-.31,2.315-.631,3.464-.971V103.666H234.1v36.342a29.479,29.479,0,0,0,3.432-.969l.03-.011V103.666h43.391v17.045q1.727-.253,3.464-.486V103.666h30.854c.1-.167.2-.334.3-.5H284.418V86.984H321.81c.039-.165.073-.332.109-.5h-37.5Zm-129.36,0h30.965V86.485H155.058Zm0,33.693V86.984h30.965v16.18Zm34.429-33.693H234.1V86.485H189.487Zm0,33.693V86.984H234.1v16.18Zm91.467,0H237.563V86.984h43.391Zm0-16.679H237.563V69.928l.608-.456h42.783Zm-29,16.679a.032.032,0,0,0,0,.013c-.017.137-.036.274-.054.413v.075h5.37v-.03l.376-.471Zm7.028,0h-.62v.5h.7Zm-21.42,0V86.984h6.178c-.066-.043-.133-.088-.2-.13l-.09-.058-.116-.071c-.068-.039-.135-.079-.207-.116s-.115-.064-.175-.1l-.041-.023h-5.346V85.6l-.145.056-.152.071h-.011l-.032.017-.1.051-.1.051c-.094.051-.188.107-.282.165l-.09.06-.188.12c-.242.161-.481.33-.727.488-.062.039-.124.079-.188.115-.133.079-.27.154-.411.222a1.569,1.569,0,0,1-.188.081l-.1.039-.094.032h0a4.4,4.4,0,0,1-.676.177v15.817h-9.263c0,.019.013.034.019.053.051.15.1.3.15.449H234.1V121h.141l.163.009.295.017.471.056.216.021.235.024h.036l.415.051.088.011.2.028.287.041h0l.689-.03h0l.094.017a.653.653,0,0,1,.116.019v-17.6h14.334v-.075c.019-.139.038-.276.054-.413a.033.033,0,0,1,0-.013Z" transform="translate(216.473 153.647)"/><path class="a" d="M317.675,117.125h.269a.545.545,0,0,1-.329-.437h0c0-.345.516-.627,1.147-.627h8.029c.631,0,1.145.282,1.145.627h0c0,.344-.514.627-1.145.627h-.268a.539.539,0,0,1,.329.436c0,.295-.376.543-.877.608h2.311c.629,0,1.145.282,1.145.627s-.516.627-1.145.627h-8.031c-.629,0-1.145-.284-1.145-.627,0-.295.375-.541.877-.608h-2.311c-.631,0-1.145-.282-1.145-.627S317.044,117.125,317.675,117.125Z" transform="translate(68.744 83.281)"/><path class="a" d="M781.115,148.895h.268a.544.544,0,0,1-.327-.437h0c0-.345.514-.627,1.145-.627h8.029c.631,0,1.147.282,1.147.627h0c0,.344-.516.625-1.147.625h-.267a.544.544,0,0,1,.327.438c0,.295-.375.543-.877.608h2.311c.631,0,1.145.282,1.145.627s-.514.627-1.145.627H783.7c-.631,0-1.147-.284-1.147-.627,0-.295.376-.543.877-.608h-2.311c-.629,0-1.145-.282-1.145-.627S780.486,148.895,781.115,148.895Z" transform="translate(-307.678 57.476)"/><path class="a" d="M252.037,284.855h.267a.543.543,0,0,1-.327-.437h0c0-.344.516-.627,1.145-.627h8.031c.629,0,1.145.284,1.145.627h0c0,.345-.516.627-1.145.627h-.268a.537.537,0,0,1,.327.436c0,.295-.376.543-.877.608h2.311c.631,0,1.147.284,1.147.627s-.516.627-1.147.627h-8.021c-.631,0-1.145-.282-1.145-.627,0-.293.376-.541.877-.608h-2.319c-.631,0-1.147-.282-1.147-.627S251.414,284.855,252.037,284.855Z" transform="translate(122.059 -52.955)"/><ellipse class="a" cx="12.197" cy="40.139" rx="12.197" ry="40.139" transform="translate(444.182 305.688) rotate(-78.45)"/><path class="b" d="M828.56,379.184s2.135-10.479,10.286-9.508c0,0,5.633.387,6.792,4.075V381.9Z" transform="translate(-347.144 -111.662)"/><path class="c" d="M977.433,405.56l-.2,13.2-7.86,3.688-.1-13.78Z" transform="translate(-451.281 -134.156)"/><path class="c" d="M973.653,478.94l.1,20.767-7.569,6.4.486-24.066Z" transform="translate(-448.764 -193.757)"/><path class="c" d="M582.764,454.791l72.493,8.846.038-1.679L582.71,454.13Z" transform="translate(-137.296 -173.606)"/><path class="c" d="M974.912,479.7v-.762l-7.182,3.17v1.682Z" transform="translate(-450.022 -193.757)"/><path class="d" d="M575.48,375.452l9.315-1.942,72.585,6.018-8.151,3.1Z" transform="translate(-131.424 -108.124)"/><path class="e" d="M947.348,407.55l3.562.233-5.9,1.767L942,409.334Z" transform="translate(-429.124 -135.772)"/><path class="f" d="M947.348,406.72l3.562.233-5.9,1.769L942,408.5Z" transform="translate(-429.124 -135.098)"/><path class="g" d="M1022.32,444.486c.141-.06.289.054.439.083.086.017.175,0,.261.017.175.023.347.139.515.081" transform="translate(-504.522 -172.464)"/><path class="g" d="M1021.34,445.055c.139-.06.289.053.439.083.086.015.175,0,.261.015.175.024.347.141.514.083" transform="translate(-503.726 -172.926)"/><path class="g" d="M1019.08,446.195c.141-.06.291.053.441.081.085.017.175,0,.259.017.177.024.349.141.515.081" transform="translate(-501.891 -173.852)"/><path class="e" d="M865.348,398.21l3.562.235-5.9,1.767L860,399.994Z" transform="translate(-362.521 -128.186)"/><path class="f" d="M865.348,397.39l3.562.233-5.9,1.767L860,399.174Z" transform="translate(-362.521 -127.52)"/><path class="g" d="M940.32,435.155c.141-.06.289.053.439.083.086.015.175,0,.261.015.175.024.347.141.515.083" transform="translate(-437.919 -164.885)"/><path class="g" d="M939.34,435.725c.139-.06.289.053.439.081.086.017.175,0,.261.017.175.024.347.141.514.081" transform="translate(-437.123 -165.347)"/><path class="g" d="M937.08,436.856c.141-.06.291.054.441.083.085.017.175,0,.259.017.177.023.349.141.514.081" transform="translate(-435.288 -166.266)"/><path class="e" d="M904.678,402.88l3.564.233-5.9,1.769-3.008-.218Z" transform="translate(-394.466 -131.979)"/><path class="f" d="M904.678,402.06l3.564.233-5.9,1.767-3.008-.218Z" transform="translate(-394.466 -131.313)"/><path class="g" d="M979.65,439.825c.141-.06.291.053.441.081.084.017.173,0,.259.017.175.023.349.141.515.081" transform="translate(-469.864 -168.678)"/><path class="g" d="M978.67,440.386c.141-.06.291.054.441.083.084.017.173,0,.259.017.175.023.349.141.515.081" transform="translate(-469.068 -169.133)"/><path class="g" d="M976.42,441.525c.139-.06.289.053.439.083.086.015.175,0,.261.015.175.024.347.141.514.083" transform="translate(-467.241 -170.058)"/><ellipse class="a" cx="38.019" cy="7.826" rx="38.019" ry="7.826" transform="translate(391.549 328.196)"/><path class="h" d="M460.24,267.014a25.471,25.471,0,0,0-2.011-6.964l.122-1.2s.026-.6-.013-1.5a6.834,6.834,0,0,1,.22-1.667,3.433,3.433,0,0,0-.494-2.441c-.083-.118.041-2.4-.7-3.524s-5.667-3.205-5.667-3.205-.265-.554-.638-1.2l.034-.066a7.059,7.059,0,0,0-1.127-1.519c-.3-.323-.593-.507-.828-.417a6.753,6.753,0,0,1-.218-.952c.049.013.1.026.148.036a1.532,1.532,0,0,0,.62.015,1.841,1.841,0,0,0,1.018-.9,14.367,14.367,0,0,0,2.593-6.345,4.034,4.034,0,0,0-.066-1.4,4.726,4.726,0,0,0-.439-1.023,8.224,8.224,0,0,0-1.239-1.827,7.06,7.06,0,0,0-3.329-1.823,11.525,11.525,0,0,0-4.3-.321c-.376.043-.751.105-1.127.13a11.7,11.7,0,0,1-1.429-.024l-2.458-.143-.011-.038-.409-.024a1.036,1.036,0,0,0,.2,1,1.711,1.711,0,0,1,.415.969,1.981,1.981,0,0,1-.475.939.9.9,0,0,0-.152.982.562.562,0,0,0,.1.109,1.238,1.238,0,0,0,.9.24h.056a6.116,6.116,0,0,0-1.245,3.7,6.226,6.226,0,0,0,3.4,5.517c.036.122.071.248.105.376a11.5,11.5,0,0,1,.394,4.06l-.043.094-.026-.1s-2.9,1.964-3.755,2.484A5.426,5.426,0,0,0,436.6,251.8c-.041.481-1.4,7.73-1.4,7.73a17.758,17.758,0,0,0-.68,2.238l-1.729,1.519a26.59,26.59,0,0,1-4.6.081l.03.2a15.6,15.6,0,0,0-2.771-.376,2.939,2.939,0,0,0-1.5.2l-.036.017-.028.013a5.951,5.951,0,0,0-1.577.443c-.06.024-.115.049-.167.073l.011-.246-3.86-.2-1.972-.4s-.7-.563-1.11-.481-1.273-.481-1.273-.481a3.441,3.441,0,0,0-.635-.394c-.066-.454-.107-.73-.107-.73s-1.534-6.087-2.683-9.666a8.239,8.239,0,0,0-2.531-4.08c-.291-.507-.483-.834-.483-.834a3.729,3.729,0,0,0-.993-1.453c-.028-.045-.049-.068-.06-.068a.22.22,0,0,0-.111.017,11.945,11.945,0,0,1-.017-5.378,5.935,5.935,0,0,0,2.167-4.574q0-.039,0-.079v-.081a5.909,5.909,0,0,0-1.4-3.812l-.064-.071a.5.5,0,0,0,.049-.039,1.006,1.006,0,0,0,.355-.969,6.642,6.642,0,0,0-.511-.986,6.372,6.372,0,0,1-.208-.8,2.478,2.478,0,0,0-.591-1.031l.028.075a3.568,3.568,0,0,0-3.141-1.055c-.847.135-1.635.53-2.486.652-.61.086-1.232.03-1.846.092a4.79,4.79,0,0,0-1.637.473.938.938,0,0,0-.347.255,1.374,1.374,0,0,0-.173.483,6.375,6.375,0,0,1-1.348,1.938,4.534,4.534,0,0,0-.909,2.5,1.961,1.961,0,0,0,.066.685c.041.133.105.259.135.394a2.706,2.706,0,0,1-.227,1.234,2.4,2.4,0,0,0,.133,1.566c.742,1.66,3.177,2.214,3.684,3.956a4.846,4.846,0,0,0,1.219.376c.034.173.064.347.088.524a.143.143,0,0,0-.032.019,3.734,3.734,0,0,0-.821,1.878l-.079.064c-.268.222-1.187.965-2.017,1.538-.986.682-2.629,2.965-3.778,3.646s-2.1,4.882-1.848,6.408,1.273,5.808.862,7.37.616,8.692.616,8.692a10.5,10.5,0,0,1,2.013.6l-.021.312-.062.939s-1.861,6.73-1.149,11.91-.329,5.714-.329,5.714.218,2.3-.329,3.1a6.666,6.666,0,0,0-.657,2.563s-.054,3.952.054,5.07.163,3.153-.22,3.633a13.913,13.913,0,0,0-1.04,4.591c.054.961-1.369,3.153-.6,5.982s-2.253,2.884-2.253,2.884.385,4.319,1.205,5.554l.12.176c-.021.071-.041.146-.064.227-.31,1.127-.734,2.9-.439,3.335.438.642.657.533.657.533l.163,2.884s3.286,2.777,5.806,2.672,2.026-2.672,2.026-2.672L395,325.307l-.073-.188,2.385-4.506s.657-1.975.821-2.67,1.055-3.156,1.055-3.156,2.253-5.34,2.3-5.982.22-4.11.657-4.807a44.476,44.476,0,0,0,1.643-4.694l.03.026a1.583,1.583,0,0,1,.409,1.575,12.586,12.586,0,0,0-.111,3.1,21.062,21.062,0,0,1-.329,2.672,57.107,57.107,0,0,0,.111,10.092,28.583,28.583,0,0,1,.282,5.049c-.257,1.061-.483,2.379-.064,2.535a26.493,26.493,0,0,0,4.328.214s1.532-.535,3.615,1.335,8.487-.533,8.487-.533,1.972-.535-1.917-2.082a33.071,33.071,0,0,1-5.61-2.569c.026-.051.054-.1.079-.156,0,0-1.589-1.5-.274-4.165a11.6,11.6,0,0,0,1.26-4.914l.22-8.973-.657-11.912-.509-12.5.09-.03c.086,2.3.535,7.77,2.884,6.709,2.957-1.335.438-4.807.438-4.807l-1.328-2.587.4-.135-1.485-4.8a10.824,10.824,0,0,1-.056-2.83,11.208,11.208,0,0,0-.034-1.652,29.634,29.634,0,0,1,4.142-.618c.394.1,2.6.115,3.468.118-.284.222-.511.441-.511.441l3.532,2.377s1.2-.655,1.448-1.35a1.558,1.558,0,0,0,.661-.353c.038.821.255,1.709,1.014,1.729a1.314,1.314,0,0,0,.552-.109l5.776-1.144-.5,3.1.345.614c-.175,2.612-.376,5.385-.552,7.824l-.081.533.041.009c-.274,3.755-.494,6.6-.494,6.6a3.46,3.46,0,0,1,1.44-1.448l.038,5.573s.289,8.812.289,10.014.039,3.885.039,3.885.618,3.284.986,4.366a48.167,48.167,0,0,1,.657,6.009s.864,1.361.494,1.878,1.438,1.641,1.438,1.641a7.05,7.05,0,0,0-1.234,2.6c-.009.12.109.248.323.376-.068.054-.137.109-.214.161a3.751,3.751,0,0,1-2.49.5c-3.205-.282-5.464,2.683-3.492,3.284s7.886.721,7.886.721,1.791-1.117,3.192-.614c-.021,1.175.038,2.253.047,2.4l-.017.013a13.024,13.024,0,0,1-4.007,2.571c-2.253.76-2.753,3.845.163,4.245a26.649,26.649,0,0,0,7.188-.481,13.249,13.249,0,0,1,3.9-2c1.684-.361,3.123-1.162,2.835-2.124-.188-.614-.67-2.223-1-3.3q-.028-.1-.056-.188c.051-.113.1-.229.148-.349,0,0-.862-4.486-.163-5.607s.329-12.338.329-12.338-1.192-2.843-.575-4.565-.986-4.167-.986-4.167a76.119,76.119,0,0,1,.644-7.629l.062-.338a15.384,15.384,0,0,0,2.291-.884s.411-6.17.657-7.571c.024-.131.058-.344.1-.62l.188-.99h0l.222-1.127h0l.751-3.84,1.356-1.754,3.492-3.568A11.292,11.292,0,0,0,460.24,267.014Zm-53.859-22.031-.026.019a.318.318,0,0,1-.009-.041A.168.168,0,0,0,406.381,244.984Zm34.506,4.373-.135.295.494-.492-.67.751.225-.473Zm-3.335,6.891c-.13.344-.269.715-.413,1.1l.265-.791Z" transform="translate(10.961 4.92)"/><path class="i" d="M595.622,441.471s-.46,3.062.92,3.1,2.3-2.362,2.3-2.362l-.563-1.921Z" transform="translate(-157.884 -169.07)"/><path class="j" d="M595.622,441.471s-.46,3.062.92,3.1,2.3-2.362,2.3-2.362l-.563-1.921Z" transform="translate(-157.884 -169.07)"/><path class="k" d="M402.949,754.825c-2.456.107-5.659-2.668-5.659-2.668l-.16-2.882s-.212.107-.64-.533c-.287-.43.126-2.212.428-3.333.146-.548.267-.939.267-.939l5.389,1.442.257.682,2.092,5.562S405.4,754.718,402.949,754.825Z" transform="translate(3.876 -416.135)"/><path class="k" d="M492.981,729.631s-6.243,2.4-8.262.533-3.523-1.335-3.523-1.335a25.159,25.159,0,0,1-4.217-.214c-.409-.156-.188-1.491.068-2.554.173-.734.361-1.341.361-1.341s6.136-2.082,7.1-.8a4.6,4.6,0,0,0,1.023.976,29.787,29.787,0,0,0,5.6,2.653C494.9,729.1,492.981,729.631,492.981,729.631Z" transform="translate(-61.395 -399.104)"/><path class="l" d="M526.647,496.35l1.707,3.415s2.456,3.47-.426,4.8-2.828-7.683-2.828-7.683Z" transform="translate(-100.663 -214.604)"/><path class="m" d="M495.25,338.61s1.868.854,2.989,4.429,2.616,9.661,2.616,9.661,1.014,6.884.852,8.592a11.078,11.078,0,0,0,.054,2.828l1.44,4.8-2.882,1.014-4.429-16.97Z" transform="translate(-76.419 -86.482)"/><path class="c" d="M495.25,338.61s1.868.854,2.989,4.429,2.616,9.661,2.616,9.661,1.014,6.884.852,8.592a11.078,11.078,0,0,0,.054,2.828l1.44,4.8-2.882,1.014-4.429-16.97Z" transform="translate(-76.419 -86.482)"/><path class="e" d="M404.821,745.93l.257.682-.315.6c-1.228.533-4.27.107-4.27.107s-.563-.715-1.333-1.893c.146-.548.267-.939.267-.939Z" transform="translate(1.629 -416.151)"/><path class="e" d="M486.924,725.147c-1.557,3.526-6.848,2.218-8.318,1.776-.242-.073-.376-.122-.376-.122s.009-.287.013-.74c.173-.734.361-1.341.361-1.341s6.136-2.082,7.1-.8a4.6,4.6,0,0,0,1.023.976A1.8,1.8,0,0,0,486.924,725.147Z" transform="translate(-62.594 -399.104)"/><path class="n" d="M417.12,507.3c-1.281,2.666.268,4.163.268,4.163-1.557,3.524-6.848,2.218-8.318,1.775-.242-.071-.376-.12-.376-.12a32.51,32.51,0,0,0-.267-5.445,58.466,58.466,0,0,1-.107-10.085,21.472,21.472,0,0,0,.319-2.67,13.011,13.011,0,0,1,.107-3.094,1.6,1.6,0,0,0-.4-1.573l-.028-.028a44.435,44.435,0,0,1-1.6,4.694c-.428.691-.586,4.163-.64,4.8s-2.242,5.978-2.242,5.978-.852,2.454-1.012,3.147-.8,2.67-.8,2.67l-2.572,4.965c-1.228.533-4.27.107-4.27.107s-.586-.751-1.388-1.975-1.174-5.548-1.174-5.548,2.935-.054,2.187-2.882.64-5.017.588-5.979a14.207,14.207,0,0,1,1.014-4.589c.374-.481.319-2.509.212-3.63s-.053-5.07-.053-5.07a6.779,6.779,0,0,1,.64-2.561c.533-.8.321-3.1.321-3.1s1.012-.533.319-5.71,1.127-11.9,1.127-11.9l.062-.939.1-1.521s15.264-.961,16.492.212a4.047,4.047,0,0,1,.779,1.117,11.115,11.115,0,0,1,.883,2.841l.64,16.17.64,11.9-.214,8.966A11.919,11.919,0,0,1,417.12,507.3Z" transform="translate(6.941 -185.741)"/><path class="e" d="M479.79,538.42l-1.6,34.688-1.923,3.162c-.242-.071-.376-.12-.376-.12a32.508,32.508,0,0,0-.267-5.445,58.468,58.468,0,0,1-.107-10.085,21.48,21.48,0,0,0,.319-2.67,13.009,13.009,0,0,1,.107-3.094,1.6,1.6,0,0,0-.4-1.573l.026-.188Z" transform="translate(-60.254 -248.774)"/><path class="e" d="M406.685,731.487s4.163-1.654,4.8-1.127-4.908,1.333-4.908,1.333Z" transform="translate(-4.398 -404.59)"/><path class="e" d="M499.847,713.5c-.16.054-4.215,1.5-3.842,3.042S499.847,713.5,499.847,713.5Z" transform="translate(-77.012 -390.98)"/><path class="l" d="M449.07,284.494s1.359,3.282.64,4.965,7.764,4.563,7.764,4.563-2.48-6.4-.079-10.008S449.07,284.494,449.07,284.494Z" transform="translate(-38.91 -40.93)"/><path class="o" d="M658.323,770.963a12.81,12.81,0,0,0-3.8,2,25.333,25.333,0,0,1-7.006.481c-2.843-.4-2.36-3.483-.159-4.244a12.776,12.776,0,0,0,3.907-2.567c.361-.332.575-.563.575-.563l7.967-1.6s.13.445.31,1.059c.319,1.083.79,2.691.971,3.3C661.365,769.8,659.964,770.6,658.323,770.963Z" transform="translate(-198.491 -432.379)"/><path class="o" d="M631.063,740.05s-3.363.36-4.764-.439-3.4.481-3.4.481-5.764-.12-7.685-.721.28-3.568,3.4-3.282a3.586,3.586,0,0,0,2.428-.5A2.557,2.557,0,0,0,622.1,734l6.76.4.939,2.4Z" transform="translate(-173.271 -407.631)"/><path class="e" d="M658.229,737.889s-7.856-1.284-8.859-2.3A2.557,2.557,0,0,0,650.427,734l6.76.4.939,2.4Z" transform="translate(-201.6 -407.631)"/><path class="p" d="M634.52,513.08l.081,11.726s.28,8.806.28,10.008.039,3.881.039,3.881.6,3.282.961,4.364a49.006,49.006,0,0,1,.64,6.009s.841,1.361.481,1.878,1.4,1.641,1.4,1.641a7.012,7.012,0,0,0-1.2,2.6c-.073,1.04,8.964,2.518,8.964,2.518l-3.521-36.1-2.8-9.045Z" transform="translate(-189.538 -227.77)"/><path class="e" d="M634.52,513.08l.081,11.726s.28,8.806.28,10.008.039,3.881.039,3.881.6,3.282.961,4.364a49.006,49.006,0,0,1,.64,6.009s.841,1.361.481,1.878,1.4,1.641,1.4,1.641a7.012,7.012,0,0,0-1.2,2.6c-.073,1.04,8.964,2.518,8.964,2.518l-3.521-36.1-2.8-9.045Z" transform="translate(-189.538 -227.77)"/><path class="e" d="M684.861,765.538c-2.616,6.236-8.836,1.423-8.836,1.423s0-.12-.015-.327c.36-.332.575-.563.575-.563l7.967-1.6S684.681,764.924,684.861,765.538Z" transform="translate(-223.238 -432.379)"/><path class="p" d="M658.335,554.7c-2.563,6.572-8.926,1.641-8.926,1.641a22.994,22.994,0,0,1,.2-4.963c.4-1.56-.441-6.245-.441-6.245a33.647,33.647,0,0,0-.92-5.122,9.126,9.126,0,0,1-.4-3.042,5.808,5.808,0,0,0-.2-2.323,15.628,15.628,0,0,1-.563-3.042,32.1,32.1,0,0,0-.36-4.842l-1.241-6.2-2.242-12.689.7-.12,12.548-2.2s2.362,12.017,1.56,13.249a5.163,5.163,0,0,0-.451,1.624c-.458,2.726-.629,7.621-.629,7.621s1.56,2.441.961,4.163.563,4.563.563,4.563.36,11.208-.321,12.329S658.335,554.7,658.335,554.7Z" transform="translate(-196.621 -222.084)"/><path class="q" d="M676.8,296.377s-11.367,8-8.806,4c1.38-2.156,1.127-4.9.586-6.974a16.456,16.456,0,0,0-1.127-3.059s9.659-4.108,8.378-.426a6.9,6.9,0,0,0-.376,2.674A7.135,7.135,0,0,0,676.8,296.377Z" transform="translate(-216.285 -45.688)"/><path class="q" d="M582.792,425.868s-4.8-1.388-5.6-.026.24,4.349,1.69,4.829,4.777-1.628,4.777-1.628Z" transform="translate(-142.746 -156.849)"/><path class="i" d="M607.725,416l-2,1.842a25.323,25.323,0,0,1-4.484.079s.922,6.164-.4,6.925l8.085-1.641Z" transform="translate(-162.182 -149.341)"/><path class="e" d="M607.725,416l-2,1.842a25.323,25.323,0,0,1-4.484.079s.922,6.164-.4,6.925l8.085-1.641Z" transform="translate(-162.182 -149.341)"/><path class="e" d="M448.647,248.071a6.008,6.008,0,0,1-6.008,6.009c-3.083-1.481-6.009-2.687-6.009-6.009a6.009,6.009,0,1,1,12.008,0Z" transform="translate(-28.801 -7.87)"/><path class="l" d="M448.761,248.3a6,6,0,1,1-1.359-3.8A6,6,0,0,1,448.761,248.3Z" transform="translate(-28.916 -8.262)"/><path class="e" d="M444.185,462.546a13.579,13.579,0,0,1-1.861.965s-3.042-.441-3.481.079-4.319.721-4.319.721-5.924-.28-6.8-1.04a3.606,3.606,0,0,0-.9-.533l.1-1.521s15.264-.961,16.492.212A4.049,4.049,0,0,1,444.185,462.546Z" transform="translate(-20.837 -185.766)"/><path class="m" d="M430.123,337.5c-.12.68-2.6,1.72-2.6,1.72s-3.042-.439-3.481.081-4.319.721-4.319.721-5.924-.282-6.8-1.042a7.639,7.639,0,0,0-2.843-1.127s-1-7.124-.6-8.684-.6-5.845-.841-7.366.68-5.723,1.8-6.4,2.723-2.963,3.682-3.643c.809-.573,1.7-1.314,1.964-1.538l.077-.064a3.789,3.789,0,0,1,.8-1.878c.64-.637,6.523,4.043,6.523,4.043s.041.361.441-.319c.09-.152.866.967,1,1.44,0,0,3.2,5.6,3.4,6.76s1.04,4.923,1.2,5.843c.041.237.109,1.067.188,2.178.015.218.028.449.045.689.118,1.844.246,4.2.323,5.978,0,.2.017.4.023.586A19.939,19.939,0,0,1,430.123,337.5Z" transform="translate(-6.035 -61.801)"/><path class="e" d="M415,387.21s2.2,2.681,2.922,2.681S415,387.21,415,387.21Z" transform="translate(-11.237 -125.956)"/><path class="e" d="M425.992,417.91s-3.6,3.922-3.123,4.643S425.992,417.91,425.992,417.91Z" transform="translate(-17.592 -150.892)"/><path class="e" d="M425.62,433.164s4.131-4.523,4.319-6.084Z" transform="translate(-19.863 -158.34)"/><path class="e" d="M453.33,439.963s4.764-2.522,5.164-4.523S453.33,439.963,453.33,439.963Z" transform="translate(-42.37 -164.82)"/><path class="e" d="M482.661,329.322l-.661,1.6,1.1.52,1.082,3.023s2.982,5.964,2.862,9.065a54.95,54.95,0,0,0,.541,7.764l1.72-.319-.811-9.124a13.162,13.162,0,0,0-1.048-4.1c-1.374-3.147-3.932-8.956-4.093-8.956-.22,0-.066.081-.066.081Z" transform="translate(-65.656 -78.514)"/><path class="r" d="M483.511,328.47l-.661,1.6,1.1.52,1.08,3.023s2.982,5.963,2.862,9.065a54.951,54.951,0,0,0,.541,7.764l1.722-.319L489.343,341a13.109,13.109,0,0,0-1.046-4.1c-1.374-3.149-3.932-8.956-4.091-8.956-.222,0-.068.081-.068.081Z" transform="translate(-66.347 -77.823)"/><path class="l" d="M572.953,431.895a15,15,0,0,1-3.645-1.5l-.338-.188.041-3.1a5.433,5.433,0,0,1,.612-.31c1.066-.466,3.254-1.1,4.351.939C575.454,430.466,574.013,431.966,572.953,431.895Z" transform="translate(-136.296 -157.724)"/><path class="e" d="M447.262,244.416a.888.888,0,0,1-.28.115c-.7.152-1.489-.447-2.086-.062a1.512,1.512,0,0,0-.5,1.159q-.128,1.127-.255,2.238a2.762,2.762,0,0,1-.165.772,1.936,1.936,0,0,1-1.842.98,1.1,1.1,0,0,1-.794-.263c-.13-.131-.2-.315-.342-.436-.939-.787-1.224,1.142-.976,1.69.4.9,1.812,1.759,1.219,2.9a1.085,1.085,0,0,1-.436.438,6.009,6.009,0,1,1,6.455-9.527Z" transform="translate(-28.776 -8.175)"/><path class="s" d="M432.48,237.168c.141.118.212.3.342.434a1.1,1.1,0,0,0,.794.263,1.926,1.926,0,0,0,1.84-.982,2.673,2.673,0,0,0,.167-.77l.255-2.238a1.505,1.505,0,0,1,.5-1.159c.6-.376,1.389.214,2.086.062a1.02,1.02,0,0,0,.751-1.175,6.615,6.615,0,0,0-.5-.984,6.432,6.432,0,0,1-.2-.8,3.179,3.179,0,0,0-3.586-2.032c-.826.137-1.594.531-2.422.652-.593.086-1.2.03-1.8.094a4.54,4.54,0,0,0-1.6.471.927.927,0,0,0-.338.255,1.411,1.411,0,0,0-.169.481,6.418,6.418,0,0,1-1.314,1.938,4.617,4.617,0,0,0-.89,2.5,2,2,0,0,0,.064.685c.039.131.1.259.131.394a2.746,2.746,0,0,1-.222,1.232,2.463,2.463,0,0,0,.131,1.566c.721,1.658,3.1,2.212,3.59,3.952a3.943,3.943,0,0,0,1.4.376,1.348,1.348,0,0,0,1.232-.629c.591-1.127-.821-2-1.219-2.9C431.254,238.306,431.534,236.379,432.48,237.168Z" transform="translate(-20.416 3.568)"/><path class="e" d="M675.87,289.919a6.9,6.9,0,0,0-.376,2.674c-.289.246-.6-.49-.939-.3-.916.53-1.975,1.789-3.109,1.789a6.228,6.228,0,0,1-2.83-.678,16.46,16.46,0,0,0-1.127-3.059S677.151,286.237,675.87,289.919Z" transform="translate(-216.318 -45.688)"/><path class="q" d="M667.75,256.745a6.245,6.245,0,1,1-6.245-6.245A6.245,6.245,0,0,1,667.75,256.745Z" transform="translate(-206.384 -14.916)"/><path class="t" d="M653.635,323.092s-1.175,1.281-1.335,1.386-3.568,14.458-3.628,14.625-4.058,13.127-4.058,13.127l-6.4,3.149.535-15.851,4.694-13.072s1.549-1.761,2.028-2.4,6.457-4.484,6.457-4.484l1.021,2.1Z" transform="translate(-192.535 -71.017)"/><path class="e" d="M683.483,323.385l-7.364,5.272-.118-2.9c.481-.64,6.457-4.482,6.457-4.482Z" transform="translate(-223.23 -72.406)"/><path class="t" d="M684.349,321.675l-7.364,5.272-.115-2.893c.481-.642,6.457-4.484,6.457-4.484Z" transform="translate(-223.936 -71.017)"/><path class="i" d="M636.321,336.59l.246,1.288-1.647,1.673,1.314-2.942s-2.817,1.962-3.661,2.482a5.345,5.345,0,0,0-1.722,2.762c-.032.481-1.361,7.725-1.361,7.725s-1,2.681-.719,3.442-1.521,24.736-1.521,24.736a3.568,3.568,0,0,1,2.407-1.846l-.642-14.169s.781-9.426.821-9.546l1.821-5.584Z" transform="translate(-183.633 -84.841)"/><path class="e" d="M640.587,344.3l-.128,2.629a64.289,64.289,0,0,1-2.381,6.544,65.685,65.685,0,0,0-2.422,6.4l-1.027,9.527-1.761.8-.867-1.6,1.442-9.2s2.721-7.764,3.123-8.566l2.007-4.229Z" transform="translate(-187.491 -91.103)"/><path class="u" d="M639.7,343.45l-.126,2.629a63.9,63.9,0,0,1-2.383,6.544,65.12,65.12,0,0,0-2.42,6.4l-1.021,9.525-1.761.8-.881-1.6,1.442-9.2s2.721-7.766,3.121-8.566l2.022-4.223Z" transform="translate(-186.768 -90.413)"/><path class="q" d="M566.31,446.533l3.442,2.383s2.428-1.361,1.014-2.242a6.269,6.269,0,0,0-3.123-1.014C567.189,445.66,566.31,446.533,566.31,446.533Z" transform="translate(-134.136 -173.431)"/><path class="q" d="M578.92,425.48a.529.529,0,0,0-.25.453c0,.73.083,2.664.695,1.791.751-1.068.614-2.028,1.761-1.335a6.759,6.759,0,0,1,1.84,1.69l-.319-2.294S580.288,424.62,578.92,425.48Z" transform="translate(-144.175 -156.783)"/><path class="e" d="M660.67,518.769a5.17,5.17,0,0,0-.451,1.624,13.567,13.567,0,0,1-12.154-2.345,61.243,61.243,0,0,1-1.521-6.4,20.868,20.868,0,0,1,.019-3.924l12.548-2.2S661.472,517.528,660.67,518.769Z" transform="translate(-199.238 -222.052)"/><path class="i" d="M667.829,331.683a12.442,12.442,0,0,0-.2,3.162l-2.882,13.609s-1.4,10.487-1.641,11.888-.64,7.565-.64,7.565a13.557,13.557,0,0,1-14.458-1.44,61.361,61.361,0,0,1-1.521-6.4c-.4-2.377.781-11.9,1.341-16.131.167-1.252.28-2.041.28-2.041l2.1-7.805s2.582-6.585,3.543-8.506,4.822-6.236,4.822-6.236c.479-.3,1.245.77,1.814,1.748.43.74.751,1.427.751,1.427s4.8,2.08,5.522,3.192.6,3.4.682,3.522A3.528,3.528,0,0,1,667.829,331.683Z" transform="translate(-199.192 -70.79)"/><path class="e" d="M663.378,327.531s.36,2.122-.563,2.762c-.892.62-7.531,13.675-7.944,14.49.167-1.254.28-2.043.28-2.043l2.1-7.8s2.584-6.585,3.543-8.508,4.824-6.236,4.824-6.236c.479-.3,1.243.77,1.812,1.748C666.572,323.723,664.782,327.091,663.378,327.531Z" transform="translate(-206.067 -71.48)"/><path class="i" d="M662.511,326.681s.359,2.122-.563,2.762-7.529,13.673-7.948,14.488c.167-1.252.28-2.041.28-2.041l2.1-7.805s2.582-6.585,3.543-8.506,4.822-6.236,4.822-6.236c.479-.3,1.245.77,1.814,1.748C665.705,322.871,663.914,326.241,662.511,326.681Z" transform="translate(-205.361 -70.79)"/><path class="v" d="M598.125,409.293l-2.259,11.752v0l-.216,1.125v0l-.486,2.529-2.075-.439-.967-.2-13.382-2.835-.984-.208-2.246-.475.439-2.918.182-1.213,1.62-10.759Z" transform="translate(-131.448 -134.229)"/><path class="q" d="M664.827,511.92s-5.323,1.921-4.163,4.2,8.605-1.761,8.605-1.761Z" transform="translate(-210.639 -227.25)"/><path class="e" d="M703.8,599.1c0,.16.2,2.2,1,2.922S703.8,599.1,703.8,599.1Z" transform="translate(-245.81 -298.06)"/><path class="e" d="M675.24,637.68s.96,2.642,4.762,3.723S675.24,637.68,675.24,637.68Z" transform="translate(-222.612 -329.396)"/><path class="e" d="M673.005,256.815a6.243,6.243,0,0,1-3.13,5.413,3.324,3.324,0,0,1-.939-.783,1.213,1.213,0,0,1-.321-1.175c.131-.317.479-.518.563-.847a1.247,1.247,0,0,0-.03-.6c-.07-.31-.135-.62-.2-.928-.058-.263-.161-.573-.423-.637s-.479.154-.683.315a2.143,2.143,0,0,1-2.065.34c-.6-.325-.434-1.412-.531-2a.349.349,0,0,0-.131-.265.548.548,0,0,0-.272-.019.784.784,0,0,1-.68-.6,5.187,5.187,0,0,1-.109-.967,1.079,1.079,0,0,0-.432-.836,1.335,1.335,0,0,0-.712-.116l-1.177.013a6.245,6.245,0,0,1,11.266,3.7Z" transform="translate(-211.639 -14.986)"/><path class="u" d="M663.289,250.287c.2-.161.43-.376.683-.314s.362.376.421.635l.2.926a1.257,1.257,0,0,1,.032.607c-.1.33-.441.529-.575.847a1.214,1.214,0,0,0,.321,1.174,3.38,3.38,0,0,0,1.932,1.155,1.42,1.42,0,0,0,.6.013,1.784,1.784,0,0,0,.991-.9,14.566,14.566,0,0,0,2.527-6.341,4.067,4.067,0,0,0-.064-1.4,4.7,4.7,0,0,0-.428-1.023,8.263,8.263,0,0,0-1.207-1.827,6.858,6.858,0,0,0-3.245-1.819,10.989,10.989,0,0,0-4.189-.329c-.375.043-.736.105-1.106.13a11.127,11.127,0,0,1-1.393-.023l-2.764-.165a1.074,1.074,0,0,0,.188,1,1.8,1.8,0,0,1,.406.969,1.993,1.993,0,0,1-.464.939.924.924,0,0,0-.148.982,1.05,1.05,0,0,0,.939.308l1.393-.015a1.331,1.331,0,0,1,.708.122,1.082,1.082,0,0,1,.432.836,5.525,5.525,0,0,0,.109.967.781.781,0,0,0,.68.6.507.507,0,0,1,.272.021.345.345,0,0,1,.131.263c.1.588-.083,1.673.531,2A2.162,2.162,0,0,0,663.289,250.287Z" transform="translate(-206.921 -7.703)"/><path class="e" d="M686.267,353.4a3.061,3.061,0,0,0-3.22,2.056c-.751,2.139-2,6-1.69,7.522.441,2.161.961,5.764.961,5.764s2.281,1.314,1.127,2.64a7.477,7.477,0,0,0-1.482,3.2,3.329,3.329,0,0,0-1.8,2c-.319,1.361-2.482,3.241-2.482,3.241l-3.241,3.243s5.363,5.445,6.444,5.723l3.322-3.883,3.922-5.2,3.4-3.568a11.714,11.714,0,0,0,.4-5.445,26.059,26.059,0,0,0-1.962-6.964l.12-1.2S690.456,353.915,686.267,353.4Z" transform="translate(-221.963 -98.477)"/><path class="i" d="M687.976,353.4a3.061,3.061,0,0,0-3.216,2.056c-.751,2.139-2,6-1.69,7.522.439,2.161.96,5.764.96,5.764s2.281,1.314,1.127,2.64a7.463,7.463,0,0,0-1.48,3.2,3.335,3.335,0,0,0-1.8,2c-.321,1.361-2.48,3.241-2.48,3.241l-3.243,3.243s5.363,5.445,6.444,5.723l3.322-3.883,3.913-5.2,3.4-3.568a11.683,11.683,0,0,0,.4-5.445,26.173,26.173,0,0,0-1.96-6.964l.12-1.2S692.165,353.917,687.976,353.4Z" transform="translate(-223.352 -98.479)"/><path class="e" d="M721.28,418.34s3.4,4.161,4.844,3.241S721.28,418.34,721.28,418.34Z" transform="translate(-260.008 -151.241)"/><path class="e" d="M728.1,401.28c.36.12,3.323,4.244,4.844,3.755S728.1,401.28,728.1,401.28Z" transform="translate(-265.547 -137.384)"/><path class="e" d="M732.58,439a2.229,2.229,0,0,0,2.642,2.041C737.663,440.72,732.58,439,732.58,439Z" transform="translate(-269.186 -168.022)"/><path class="e" d="M615.31,301.83l-1.32,2.942,1.649-1.673Z" transform="translate(-162.703 -49.903)"/><path class="t" d="M615.31,300.98l-1.32,2.942,1.649-1.673Z" transform="translate(-162.703 -49.212)"/><path class="w" d="M580.64,467.764l-.984-.208-1.806-3.393.182-1.213Z" transform="translate(-133.349 -180.77)"/><path class="w" d="M667.724,487.65l-.216,1.125v0l-2.561,2.09-.967-.2Z" transform="translate(-203.307 -200.832)"/><path class="e" d="M439.544,364.645c-.5.083-.976.158-1.416.214-2.441.321-8.247-2.561-8.247-2.561s-7.084-5.924-9.125-11.527,2.441-6.444,2.441-6.444c1.69-.961,5.365,1.72,5.885,2.161a3.342,3.342,0,0,1,.92,2.281c-.041.721,1.2,1.641,1.2,1.641a35.649,35.649,0,0,0,2.642,4.082,2.089,2.089,0,0,1,.8,1.442c.16.682,1.56,1.241,2.161,1.2s1.314.2,1.314.52c0,.257.588.385,1.07.426C439.333,360.133,439.474,362.821,439.544,364.645Z" transform="translate(-15.479 -90.957)"/><path class="e" d="M440.91,361.289c-.376.06-.736.115-1.074.16-2.441.321-8.245-2.561-8.245-2.561s-7.084-5.924-9.126-11.527,2.441-6.444,2.441-6.444c1.69-.961,5.363,1.72,5.883,2.161a3.353,3.353,0,0,1,.922,2.281c-.039.721,1.2,1.641,1.2,1.641a35.645,35.645,0,0,0,2.642,4.082,2.1,2.1,0,0,1,.8,1.442c.161.682,1.56,1.239,2.161,1.2s1.314.2,1.314.52c0,.188.334.314.706.376.015.218.028.449.045.689C440.705,357.154,440.833,359.509,440.91,361.289Z" transform="translate(-16.868 -88.187)"/><path class="e" d="M569.623,428.84l-.152,3.6h-.163l-.338-.188.041-3.1A5.443,5.443,0,0,1,569.623,428.84Z" transform="translate(-136.296 -159.77)"/><path class="m" d="M423.2,342.619s-4.482.841-2.441,6.444,9.125,11.529,9.125,11.529,5.8,2.88,8.247,2.561,6.163-1.16,6.643-1.04,3.723.12,3.723.12l.16-3.755-3.755-.2-1.921-.4s-.682-.563-1.082-.481-1.239-.481-1.239-.481a2.393,2.393,0,0,0-1.127-.52c-.484,0-1.4-.12-1.4-.439s-.721-.563-1.314-.52-2.011-.52-2.176-1.209a2.089,2.089,0,0,0-.8-1.44A35.647,35.647,0,0,1,431.2,348.7s-1.241-.92-1.2-1.639a3.359,3.359,0,0,0-.92-2.283C428.555,344.339,424.875,341.66,423.2,342.619Z" transform="translate(-15.479 -89.571)"/><path class="e" d="M491.6,412.15s-1.722,1.722-1.282,2.041Z" transform="translate(-72.356 -146.213)"/><path class="e" d="M499.719,419.4s-2.242,1.722-1.641,1.842S499.719,419.4,499.719,419.4Z" transform="translate(-78.632 -152.102)"/><path class="e" d="M487,433c.321.161,5.083,3,6.885,2.963Z" transform="translate(-69.718 -163.148)"/><path class="e" d="M456.7,314.061s-.841,2.762-1.162,2.762c-.252,0-4.476-3.421-6.239-4.859l.077-.064a3.779,3.779,0,0,1,.8-1.878C450.817,309.386,456.7,314.061,456.7,314.061Z" transform="translate(-39.096 -63.214)"/><path class="m" d="M455.842,312.351s-.839,2.762-1.16,2.762c-.253,0-4.478-3.421-6.241-4.859l.077-.064a3.789,3.789,0,0,1,.8-1.878C449.959,307.676,455.842,312.351,455.842,312.351Z" transform="translate(-38.398 -61.825)"/><g class="x" transform="translate(406.108 232.334)"><path d="M427.49,282.54h0c.563,1.286,2.114,1.91,3.014,2.935C429.969,284.215,428.4,283.6,427.49,282.54Z" transform="translate(-427.49 -273.274)"/><path d="M447.387,293.625a1.349,1.349,0,0,1-1.232.629,3.594,3.594,0,0,1-1.236-.315,2.4,2.4,0,0,1,.319.68,3.924,3.924,0,0,0,1.4.376,1.336,1.336,0,0,0,1.232-.629c.359-.685-.015-1.271-.453-1.825A1.192,1.192,0,0,1,447.387,293.625Z" transform="translate(-441.647 -281.396)"/><path d="M459.4,236.008a6.442,6.442,0,0,0-.5-.984,6.144,6.144,0,0,1-.2-.8,2.489,2.489,0,0,0-.576-1.031,2.391,2.391,0,0,1,.1.284,6.461,6.461,0,0,0,.21.807,6.444,6.444,0,0,1,.5.984,1.02,1.02,0,0,1-.751,1.175c-.695.152-1.487-.449-2.084-.062a1.5,1.5,0,0,0-.5,1.157q-.126,1.127-.255,2.24a2.686,2.686,0,0,1-.165.77,1.934,1.934,0,0,1-1.842.982,1.106,1.106,0,0,1-.792-.263,5.239,5.239,0,0,0-.344-.436c-.939-.789-1.224,1.14-.976,1.69a3.4,3.4,0,0,0,.458.689c-.207-.62.083-2.4,1-1.639a4.853,4.853,0,0,1,.342.436,1.113,1.113,0,0,0,.794.263,1.934,1.934,0,0,0,1.842-.982,2.685,2.685,0,0,0,.165-.772q.128-1.127.255-2.238a1.5,1.5,0,0,1,.5-1.157c.6-.387,1.391.214,2.086.06A1.018,1.018,0,0,0,459.4,236.008Z" transform="translate(-446.689 -233.19)"/></g><path class="e" d="M667.118,254.728a1.451,1.451,0,0,1-.6-.015,3.38,3.38,0,0,1-1.93-1.153,1.209,1.209,0,0,1-.321-1.175c.131-.317.477-.516.563-.847a1.259,1.259,0,0,0-.032-.606l-.2-.926c-.058-.263-.16-.573-.421-.635s-.479.152-.683.314a2.139,2.139,0,0,1-2.065.34c-.6-.327-.434-1.412-.531-2a.351.351,0,0,0-.131-.263.535.535,0,0,0-.274-.021.786.786,0,0,1-.68-.6,5.336,5.336,0,0,1-.107-.967,1.084,1.084,0,0,0-.434-.836,1.35,1.35,0,0,0-.708-.122l-1.393.015c-.344,0-.751-.023-.939-.308a.935.935,0,0,1,.148-.982,1.944,1.944,0,0,0,.464-.939,1.766,1.766,0,0,0-.406-.969,1.737,1.737,0,0,1-.237-.537l-.4-.024a1.08,1.08,0,0,0,.188,1,1.791,1.791,0,0,1,.406.967,1.993,1.993,0,0,1-.464.939.92.92,0,0,0-.146.982,1.05,1.05,0,0,0,.939.31l1.393-.017a1.348,1.348,0,0,1,.708.124,1.078,1.078,0,0,1,.434.836,5.187,5.187,0,0,0,.109.967.777.777,0,0,0,.68.6.55.55,0,0,1,.272.021.353.353,0,0,1,.131.265c.1.586-.083,1.673.531,2a2.13,2.13,0,0,0,2.065-.34c.2-.161.432-.376.685-.315s.362.376.419.635l.2.928a1.256,1.256,0,0,1,.03.607c-.094.329-.441.529-.573.845a1.212,1.212,0,0,0,.321,1.175,3.38,3.38,0,0,0,1.943,1.153,1.451,1.451,0,0,0,.6.015,1.416,1.416,0,0,0,.781-.593A1.044,1.044,0,0,1,667.118,254.728Z" transform="translate(-206.73 -7.581)"/><ellipse class="a" cx="13.144" cy="2.017" rx="13.144" ry="2.017" transform="translate(473.295 337.318)"/><ellipse class="a" cx="10.252" cy="1.573" rx="10.252" ry="1.573" transform="translate(513.55 329.218)"/><path class="y" d="M239.35,635.752c0,.237.026.428.058.428s.06-.188.06-.428-.034-.124-.066-.124S239.35,635.515,239.35,635.752Z" transform="translate(131.432 -338.707)"/><path class="y" d="M237.054,637.213c.208.113.389.188.406.152s-.141-.143-.349-.257-.126-.03-.141,0S236.845,637.1,237.054,637.213Z" transform="translate(133.4 -339.885)"/><circle class="a" cx="1.964" cy="1.964" r="1.964" transform="translate(343.424 192.053)"/><circle class="a" cx="2.629" cy="2.629" r="2.629" transform="translate(531.384 264.181)"/><circle class="a" cx="1.919" cy="1.919" r="1.919" transform="translate(537.162 259.258)"/><ellipse class="a" cx="2.5" cy="3" rx="2.5" ry="3" transform="translate(336 196.023)"/></g></svg>