<svg xmlns="http://www.w3.org/2000/svg" width="169.714" height="182.612" viewBox="0 0 169.714 182.612"><defs><style>.a{fill:#f2f2f2;}.b{fill:#fff;}.c{fill:#ccc;}.d{fill:#e6e6e6;}.e{fill:#F5F200;}.f{fill:#3f3d56;}.g{fill:#a0616a;}.h{fill:#2f2e41;}</style></defs><g transform="translate(-0.004 0)"><path class="a" d="M418.657,242.645,345.3,261.537a9.7,9.7,0,0,1-11.8-6.967l-22.186-86.157a9.7,9.7,0,0,1,6.967-11.8l68.251-17.575L404,146.858l21.628,83.988A9.7,9.7,0,0,1,418.657,242.645Z" transform="translate(-310.999 -139.037)"/><path class="b" d="M325.683,166.4a6.908,6.908,0,0,0-4.961,8.4l22.186,86.157a6.908,6.908,0,0,0,8.4,4.961l73.361-18.891a6.908,6.908,0,0,0,4.961-8.4l-21.293-82.686-15.352-6.873Z" transform="translate(-317.71 -146.121)"/><path class="a" d="M585.1,147.856l-11.354,2.924a3.227,3.227,0,0,1-3.93-2.32l-2.159-8.386a.2.2,0,0,1,.277-.235l17.2,7.637a.2.2,0,0,1-.031.38Z" transform="translate(-492.288 -139.591)"/><path class="c" d="M521.531,410.123l-33.4,8.6a1.614,1.614,0,0,1-.8-3.125l33.4-8.6a1.614,1.614,0,0,1,.8,3.125Z" transform="translate(-434.694 -328.282)"/><path class="c" d="M532.6,422.431l-39.846,10.261a1.614,1.614,0,0,1-.8-3.125L531.8,419.306a1.614,1.614,0,1,1,.8,3.125Z" transform="translate(-437.961 -336.976)"/><circle class="d" cx="5.703" cy="5.703" r="5.703" transform="translate(34.102 89.395)"/><path class="b" d="M450.558,256.418,406.2,267.837a5,5,0,0,1-6.078-3.59l-9.3-36.113a5,5,0,0,1,3.59-6.078l44.359-11.419a5,5,0,0,1,6.078,3.59l9.3,36.113A5,5,0,0,1,450.558,256.418Z" transform="translate(-367.272 -189.503)"/><path class="d" d="M450.558,256.418,406.2,267.837a5,5,0,0,1-6.078-3.59l-9.3-36.113a5,5,0,0,1,3.59-6.078l44.359-11.419a5,5,0,0,1,6.078,3.59l9.3,36.113A5,5,0,0,1,450.558,256.418Zm-56-33.793a4.409,4.409,0,0,0-3.167,5.363l9.3,36.113a4.409,4.409,0,0,0,5.363,3.167l44.359-11.419a4.409,4.409,0,0,0,3.167-5.363l-9.3-36.113a4.409,4.409,0,0,0-5.363-3.167Z" transform="translate(-367.272 -189.503)"/><path class="a" d="M490.558,248.549l-22.388,5.763a.8.8,0,0,1-.971-.5.772.772,0,0,1,.544-.98l22.789-5.866c.921.466.678,1.421.026,1.589Z" transform="translate(-421.307 -215.272)"/><path class="a" d="M494,261.923l-22.387,5.763a.8.8,0,0,1-.971-.5.772.772,0,0,1,.544-.98l22.789-5.866c.921.466.678,1.421.026,1.589Z" transform="translate(-423.739 -224.719)"/><path class="d" d="M435.473,273.718l-6.832,1.759a.87.87,0,0,1-1.058-.625l-2.076-8.063a.87.87,0,0,1,.625-1.058l6.832-1.759a.87.87,0,0,1,1.058.625l2.076,8.063A.87.87,0,0,1,435.473,273.718Z" transform="translate(-391.863 -227.269)"/><path class="a" d="M472.489,289.364l-34.167,8.8a.8.8,0,0,1-.971-.5.772.772,0,0,1,.544-.98l34.569-8.9c.921.466.678,1.421.026,1.589Z" transform="translate(-400.222 -244.102)"/><path class="a" d="M475.932,302.741l-34.167,8.8a.8.8,0,0,1-.971-.5.772.772,0,0,1,.544-.981l34.569-8.9C476.827,301.619,476.585,302.573,475.932,302.741Z" transform="translate(-402.655 -253.552)"/><path class="a" d="M479.374,316.111l-34.167,8.8a.8.8,0,0,1-.971-.5.773.773,0,0,1,.544-.98l34.569-8.9C480.269,314.989,480.027,315.943,479.374,316.111Z" transform="translate(-405.086 -262.996)"/><path class="a" d="M482.817,329.488l-34.167,8.8a.8.8,0,0,1-.971-.5.772.772,0,0,1,.544-.98l34.569-8.9C483.712,328.365,483.47,329.319,482.817,329.488Z" transform="translate(-407.518 -272.445)"/><path class="a" d="M486.259,342.858l-34.167,8.8a.8.8,0,0,1-.971-.5.772.772,0,0,1,.544-.981l34.569-8.9C487.154,341.736,486.912,342.69,486.259,342.858Z" transform="translate(-409.949 -281.889)"/><path class="b" d="M442.459,458.124a.591.591,0,0,1-.374-.026l-.007,0-1.554-.659a.6.6,0,1,1,.466-1.1l1.007.428,1.319-3.1a.6.6,0,0,1,.781-.315h0l-.008.02.008-.02a.6.6,0,0,1,.315.781l-1.552,3.649a.6.6,0,0,1-.4.343Z" transform="translate(-402.234 -361.027)"/><path class="d" d="M567.919,343.062H492.164a9.7,9.7,0,0,1-9.69-9.69V244.4a9.7,9.7,0,0,1,9.69-9.69h70.477l14.967,11.93v86.728A9.7,9.7,0,0,1,567.919,343.062Z" transform="translate(-432.123 -206.622)"/><path class="b" d="M498.875,244.215a6.908,6.908,0,0,0-6.9,6.9v88.968a6.908,6.908,0,0,0,6.9,6.9h75.755a6.908,6.908,0,0,0,6.9-6.9V254.7l-13.153-10.484Z" transform="translate(-438.833 -213.332)"/><path class="e" d="M636.438,324.555h-34.49a1.614,1.614,0,1,1,0-3.227h34.49a1.614,1.614,0,1,1,0,3.227Z" transform="translate(-515.376 -267.803)"/><path class="e" d="M643.094,343.1H601.948a1.614,1.614,0,0,1,0-3.227h41.146a1.614,1.614,0,1,1,0,3.227Z" transform="translate(-515.376 -280.904)"/><path class="c" d="M636.442,404.443H601.953a1.613,1.613,0,0,0,0,3.227h34.489a1.613,1.613,0,1,0,0-3.227Z" transform="translate(-515.379 -326.513)"/><path class="c" d="M643.1,422.993H601.953a1.613,1.613,0,0,0,0,3.227H643.1a1.613,1.613,0,0,0,0-3.227Z" transform="translate(-515.38 -339.617)"/><path class="c" d="M636.438,490.791h-34.49a1.614,1.614,0,0,1,0-3.227h34.49a1.614,1.614,0,0,1,0,3.227Z" transform="translate(-515.376 -385.228)"/><path class="c" d="M643.094,509.338H601.948a1.614,1.614,0,0,1,0-3.227h41.146a1.614,1.614,0,0,1,0,3.227Z" transform="translate(-515.376 -398.329)"/><circle class="e" cx="5.703" cy="5.703" r="5.703" transform="translate(66.506 52.158)"/><path class="b" d="M550.333,333.072a.592.592,0,0,1-.356-.118l-.006,0-1.34-1.025a.6.6,0,0,1,.725-.945l.868.666,2.051-2.676a.6.6,0,0,1,.835-.11h0l-.013.018.013-.018a.6.6,0,0,1,.11.835l-2.413,3.147a.6.6,0,0,1-.474.232Z" transform="translate(-478.689 -273.035)"/><path class="c" d="M550.9,405.49a5.7,5.7,0,0,1-5.7,5.705,1.234,1.234,0,0,1-.147-.006,5.7,5.7,0,1,1,5.849-5.7Z" transform="translate(-472.397 -323.223)"/><circle class="c" cx="5.703" cy="5.703" r="5.703" transform="translate(66.506 100.969)"/><path class="c" d="M769.514,247.571H757.79a3.227,3.227,0,0,1-3.227-3.227v-8.659a.2.2,0,0,1,.327-.158l14.75,11.685a.2.2,0,0,1-.125.36Z" transform="translate(-624.319 -207.164)"/><path class="e" d="M562.13,405.686a5.7,5.7,0,0,1-5.7,5.705,1.234,1.234,0,0,1-.147-.006,12.347,12.347,0,0,1,1.107-11.322A5.706,5.706,0,0,1,562.13,405.686Z" transform="translate(-483.631 -323.42)"/><path class="e" d="M600.334,406.058a1.618,1.618,0,0,1,1.615-1.615h8.594a12.208,12.208,0,0,1,1.06,3.227h-9.654a1.615,1.615,0,0,1-1.615-1.612Z" transform="translate(-515.376 -326.513)"/><path class="e" d="M611.807,422.993a12.307,12.307,0,0,1-.429,3.227h-9.425a1.613,1.613,0,0,1,0-3.227Z" transform="translate(-515.379 -339.617)"/><path class="f" d="M654.509,454.162a1.762,1.762,0,0,1-2.421.587l-20.555-12.538a1.762,1.762,0,1,1,1.835-3.008l20.555,12.538a1.762,1.762,0,0,1,.587,2.421Z" transform="translate(-536.817 -350.885)"/><path class="f" d="M578.954,396.5a14.094,14.094,0,1,1-4.693-19.371A14.094,14.094,0,0,1,578.954,396.5ZM557.9,383.659a10.57,10.57,0,1,0,14.529-3.52,10.57,10.57,0,0,0-14.529,3.52Z" transform="translate(-481.817 -305.764)"/><circle class="g" cx="7.212" cy="7.212" r="7.212" transform="translate(135.082 71.236)"/><path class="g" d="M793.643,477.128a3.23,3.23,0,0,1,2.444-4.155,3.074,3.074,0,0,1,.428-.053l7.6-12.192-6.939-6.6a2.769,2.769,0,1,1,3.853-3.979l9.581,9.447.019.023a2.509,2.509,0,0,1-.175,2.99L799.807,475.2a3.03,3.03,0,0,1,.079.307,3.231,3.231,0,0,1-2.9,3.851q-.138.012-.274.012A3.241,3.241,0,0,1,793.643,477.128Z" transform="translate(-651.816 -358.25)"/><path class="g" d="M431.371,575.6h-3.6l-1.712-13.885h5.313Z" transform="translate(-300.955 -396.78)"/><path class="h" d="M730.353,748.7H718.746v-.147a4.518,4.518,0,0,1,4.518-4.518h7.089Z" transform="translate(-599.019 -566.393)"/><path class="g" d="M537.936,563.349l-3.093,1.842-8.575-11.054,4.565-2.718Z" transform="translate(-371.741 -389.509)"/><path class="h" d="M860.067,730.057l-9.973,5.938-.075-.126a4.518,4.518,0,0,1,1.57-6.193h0l6.091-3.627Z" transform="translate(-691.297 -553.688)"/><path class="h" d="M731.1,569.353c-2.412-28.4-3.846-54.774,4.969-65.535l.068-.083,14.836,5.934.024.053c.05.109,4.984,10.962,3.833,18.262l3.659,16.833L770.419,564.8a1.322,1.322,0,0,1-.6,1.887l-5.185,2.281a1.328,1.328,0,0,1-1.659-.518l-12.979-21.164-7.331-16.233a.441.441,0,0,0-.839.135l-4.064,38.2a1.319,1.319,0,0,1-1.314,1.182h-4.031A1.33,1.33,0,0,1,731.1,569.353Z" transform="translate(-606.448 -396.651)"/><path class="e" d="M751.951,458.372l-.071-.034-.011-.078a25.058,25.058,0,0,1,1.95-12.809,10.17,10.17,0,0,1,11.8-6.091h0a10.157,10.157,0,0,1,6.477,4.981,10.048,10.048,0,0,1,.7,8.053c-2.33,6.812-5.352,13.186-5.382,13.249l-.063.133Z" transform="translate(-622.282 -350.98)"/><path class="g" d="M694.528,456.462a3.23,3.23,0,0,1,4.748.834,3.07,3.07,0,0,1,.2.383l14.08,2.846,3.749-8.81a2.769,2.769,0,1,1,5.077,2.215l-5.494,12.282-.015.026a2.509,2.509,0,0,1-2.862.884l-15.519-5.561a3.027,3.027,0,0,1-.26.182,3.231,3.231,0,0,1-4.623-1.367q-.059-.125-.107-.252A3.24,3.24,0,0,1,694.528,456.462Z" transform="translate(-581.046 -358.731)"/><path class="h" d="M800.62,389.505a5.88,5.88,0,0,0-3.045-2.813c-1.728-.588-3.6.038-5.375.456a9.96,9.96,0,0,1-4.178.247,4.692,4.692,0,0,1-3.338-2.333c-.923-1.851-.146-4.058-.2-6.126a7.439,7.439,0,0,0-9.373-6.991c-1.7-.491-3.241-.536-4.293.771a4.992,4.992,0,0,0-4.992,4.992H770.6a4.742,4.742,0,0,0,.721,3.5c.843,1.238,2.308,2.133,2.59,3.6.273,1.425-.7,2.777-1.712,3.813s-2.195,2.062-2.512,3.478a4.314,4.314,0,0,0,.618,3.1,10.1,10.1,0,0,0,2.169,2.389,31.829,31.829,0,0,0,13.224,6.765c3.437.827,7.2,1.042,10.386-.48a10.314,10.314,0,0,0,4.541-14.378Z" transform="translate(-632.273 -303.334)"/><path class="c" d="M753.083,759.55H697.294a.294.294,0,1,1,0-.587h55.788a.294.294,0,1,1,0,.587Z" transform="translate(-583.659 -576.938)"/></g></svg>