<svg xmlns="http://www.w3.org/2000/svg" width="216" height="128.972" viewBox="0 0 216 128.972"><defs><style>.a{fill:#8f8f8f;}.b{fill:#F5F200;}.c{fill:#3f3d56;}.d{fill:#fff;}.e{fill:#ffb8b8;}.f{fill:#2f2e41;}.g{fill:#e6e6e6;}</style></defs><g transform="translate(0 0.005)"><circle class="a" cx="11.131" cy="11.131" r="11.131" transform="translate(6.75 6.126)"/><circle class="b" cx="27.344" cy="27.344" r="27.344" transform="translate(0 17.23)"/><path class="c" d="M106.348,253.682h-5.6L103.3,167.2Z" transform="translate(-76.368 -126.745)"/><path class="c" d="M111.018,208.876l6.013-8.319-6.095,10.378-.659-1.153Z" transform="translate(-83.592 -152.029)"/><path class="c" d="M91.783,243.592l-6.012-8.318,6.095,10.378.659-1.153Z" transform="translate(-65.016 -178.345)"/><path class="c" d="M809.962,254.058h-5.6l2.553-86.481Z" transform="translate(-609.717 -127.03)"/><path class="c" d="M814.632,209.252l6.013-8.319-6.095,10.378-.659-1.153Z" transform="translate(-616.941 -152.314)"/><path class="c" d="M795.4,243.969l-6.012-8.319,6.095,10.378.659-1.153Z" transform="translate(-598.365 -178.63)"/><circle class="c" cx="50.939" cy="50.939" r="50.939" transform="translate(60.146 25.136)"/><circle class="d" cx="46.722" cy="46.722" r="46.722" transform="translate(64.363 29.353)"/><circle class="c" cx="6.241" cy="6.241" r="6.241" transform="translate(104.675 70.003)"/><rect class="c" width="2.699" height="5.06" transform="translate(109.567 31.714)"/><rect class="c" width="2.699" height="5.06" transform="translate(109.567 115.713)"/><rect class="c" width="2.699" height="5.06" transform="translate(71.447 74.894) rotate(90)"/><rect class="c" width="2.699" height="5.06" transform="translate(155.446 74.894) rotate(90)"/><path class="c" d="M450.924,309.767l2.306-5.274,28.9,16.005Z" transform="translate(-341.807 -230.814)"/><rect class="c" width="13.156" height="15.18" transform="translate(104.507 12.823)"/><ellipse class="c" cx="15.18" cy="4.217" rx="15.18" ry="4.217" transform="translate(95.905 8.606)"/><path class="e" d="M714.855,527.585l-.843,1.181s-3.88,4.554-4.048,2.361,2.867-3.711,2.867-3.711l1.687-1.012Z" transform="translate(-575.349 -442.486)"/><path class="e" d="M825.623,547.117l.706,1.268s2.456,5.455.4,4.669-2.127-4.18-2.127-4.18l-.193-1.958Z" transform="translate(-662.107 -458.035)"/><circle class="f" cx="5.136" cy="5.136" r="5.136" transform="translate(154.583 56.335)"/><path class="e" d="M811.751,607.157l.675,4.385v1.349h3.88V611.2s.169-3.036-.506-3.879S811.751,607.157,811.751,607.157Z" transform="translate(-652.51 -503.504)"/><path class="e" d="M783.173,607.157l.675,4.385v1.349h3.879V611.2s.169-3.036-.506-3.879S783.173,607.157,783.173,607.157Z" transform="translate(-630.848 -503.504)"/><path class="b" d="M791.364,462.384a1.726,1.726,0,0,0-.473,2.575c1.019,1.789,7,20.3,7,20.3l3.45-.979-3.042-11.7-1.742-7.357Z" transform="translate(-636.428 -393.958)"/><circle class="e" cx="3.879" cy="3.879" r="3.879" transform="translate(155.277 59.039)"/><path class="e" d="M806.041,442.063l-.506,7.928-3.542-2.53s1.181-4.723.843-5.06Z" transform="translate(-645.113 -378.555)"/><path class="b" d="M793.19,462.3l-3.816-2.826s-1.75-.716-2.256.127-3.036,13.325-1.687,15.686c0,0,7.253,1.518,8.771.675l.675-4.385s.843-2.7-.506-4.385Z" transform="translate(-632.263 -391.533)"/><path class="b" d="M741.8,460.637a1.726,1.726,0,0,0-2.53.675c-1.181,1.687-15.349,15.012-15.349,15.012l2.361,2.7,9.277-7.759,5.9-4.723Z" transform="translate(-585.937 -392.405)"/><path class="f" d="M790.34,525.466s-8.349-1.6-9.193-.422l-.169,1.855s-1.855,3.542-.843,9.277a28.239,28.239,0,0,1,.337,9.277,37.3,37.3,0,0,1,7.928,0c3.373.506,3.88,0,3.88,0Z" transform="translate(-628.316 -441.126)"/><path class="f" d="M816.643,628.868l-4.892.169,1.687,12.65s-1.349,5.4.169,5.735a17.108,17.108,0,0,0,3.2.337,4.648,4.648,0,0,0,3.2,1.349,9.449,9.449,0,0,0,3.2-1.012,1.048,1.048,0,0,0-.843-1.349c-1.181-.337-4.385-1.349-5.06-4.892Z" transform="translate(-652.51 -520.155)"/><path class="f" d="M788.064,628.868l-4.891.169,1.687,12.65s-1.349,5.4.169,5.735a17.109,17.109,0,0,0,3.2.337,4.648,4.648,0,0,0,3.2,1.349,9.447,9.447,0,0,0,3.2-1.012,1.048,1.048,0,0,0-.843-1.349c-1.181-.337-4.385-1.349-5.06-4.892Z" transform="translate(-630.848 -520.155)"/><circle class="f" cx="2.125" cy="2.125" r="2.125" transform="translate(159.39 53.94)"/><path class="f" d="M826.9,399.889a2.125,2.125,0,0,0-1.9-2.114,2.125,2.125,0,1,1,0,4.227A2.126,2.126,0,0,0,826.9,399.889Z" transform="translate(-662.548 -344.975)"/><ellipse class="f" cx="3.542" cy="2.125" rx="3.542" ry="2.125" transform="translate(155.579 58.257)"/><path class="g" d="M913.241,189.8a10.811,10.811,0,0,0-21.212-2.279c-.131,0-.262-.01-.394-.01a10.813,10.813,0,0,0-10.373,7.763,7.641,7.641,0,0,0-9.067,2.257H905.92a7.313,7.313,0,0,0,7.329-7.571Q913.245,189.875,913.241,189.8Z" transform="translate(-698.328 -179.599)"/><circle class="g" cx="2.904" cy="2.904" r="2.904" transform="translate(183.816 27.142)"/><circle class="g" cx="2.418" cy="2.418" r="2.418" transform="translate(193.07 20.781)"/><circle class="g" cx="2.904" cy="2.904" r="2.904" transform="translate(204.385 33.433)"/><circle class="g" cx="2.904" cy="2.904" r="2.904" transform="translate(182.364 46.743)"/><circle class="g" cx="2.904" cy="2.904" r="2.904" transform="translate(204.385 63.44)"/><circle class="g" cx="1.21" cy="1.21" r="1.21" transform="translate(208.74 53.518)"/><circle class="g" cx="1.21" cy="1.21" r="1.21" transform="translate(200.997 24.48)"/><circle class="g" cx="1.21" cy="1.21" r="1.21" transform="translate(196.883 54.486)"/><circle class="g" cx="1.21" cy="1.21" r="1.21" transform="translate(197.851 53.276)"/><circle class="g" cx="1.21" cy="1.21" r="1.21" transform="translate(198.577 52.066)"/><circle class="g" cx="1.21" cy="1.21" r="1.21" transform="translate(195.673 62.23)"/><circle class="g" cx="1.21" cy="1.21" r="1.21" transform="translate(213.58 75.781)"/><circle class="g" cx="1.21" cy="1.21" r="1.21" transform="translate(187.688 76.507)"/><circle class="g" cx="1.21" cy="1.21" r="1.21" transform="translate(189.14 39.241)"/><circle class="g" cx="1.21" cy="1.21" r="1.21" transform="translate(194.705 61.02)"/><circle class="g" cx="1.21" cy="1.21" r="1.21" transform="translate(193.495 59.084)"/></g></svg>