<svg xmlns="http://www.w3.org/2000/svg" width="39" height="39" viewBox="0 0 39 39"><defs><style>.a{fill:none;}.b{fill:#333333;}</style></defs><rect class="a" width="39" height="39"/><g transform="translate(7.306 1.624)"><path class="b" d="M33.292,12.644A12.752,12.752,0,0,0,24.111,2.325,11.944,11.944,0,0,0,21.186,2,12.106,12.106,0,0,0,9,13.456a11.781,11.781,0,0,0,3.494,8.775C13.873,23.694,15.5,25.969,15.5,28v6.5a1.706,1.706,0,0,0,.65,1.3l2.6,1.95h4.875l2.6-1.95a1.706,1.706,0,0,0,.65-1.3V28c0-1.95,1.544-4.306,3.006-5.687a11.862,11.862,0,0,0,3.412-9.669ZM23.623,29.625H18.748V28h4.875ZM22.567,34.5H19.8l-1.056-.812v-.812h4.875v.813ZM27.6,19.956a15.519,15.519,0,0,0-3.331,4.794H18.017a14.381,14.381,0,0,0-3.25-4.794,8.531,8.531,0,0,1-2.519-6.338A8.856,8.856,0,0,1,21.186,5.25a10.075,10.075,0,0,1,2.194.244,9.5,9.5,0,0,1,6.663,7.475A8.206,8.206,0,0,1,27.6,19.956Z" transform="translate(-8.992 -1.999)"/></g></svg>