<svg xmlns="http://www.w3.org/2000/svg" width="16" height="16" viewBox="0 0 16 16"><defs><style>.a{fill:none;}.b{fill:#316ea9;}</style></defs><g transform="translate(-0.207 -0.207)"><rect class="a" width="16" height="16" transform="translate(0.207 0.207)"/><g transform="translate(0.681 0.681)"><path class="b" d="M16.3,4.043H14.261V2.681A.681.681,0,0,0,13.58,2H5.406a.681.681,0,0,0-.681.681V4.043H2.681A.681.681,0,0,0,2,4.725v6.13a.681.681,0,0,0,.681.681H4.725V16.3a.681.681,0,0,0,.681.681H13.58a.681.681,0,0,0,.681-.681V11.536H16.3a.681.681,0,0,0,.681-.681V4.725A.681.681,0,0,0,16.3,4.043ZM6.087,3.362H12.9v.681H6.087ZM12.9,15.623H6.087V11.536H12.9Zm2.725-5.449H3.362V5.406H15.623Z" transform="translate(-2 -2)"/><circle class="b" cx="1" cy="1" r="1" transform="translate(10.526 4.526)"/><path class="b" d="M18.681,35.362h2.725a.681.681,0,1,0,0-1.362H18.681a.681.681,0,1,0,0,1.362Z" transform="translate(-12.551 -23.102)"/></g></g></svg>