<svg xmlns="http://www.w3.org/2000/svg" width="41" height="41" viewBox="0 0 41 41"><defs><style>.a{fill:none;}.b{fill:#333333;}</style></defs><g transform="translate(-0.083 -0.083)"><rect class="a" width="41" height="41" transform="translate(0.083 0.083)"/><g transform="translate(1.712 1.712)"><path class="b" d="M23.712,8.847a1.712,1.712,0,0,0,1.712-1.712V3.712a1.712,1.712,0,0,0-3.424,0V7.135A1.712,1.712,0,0,0,23.712,8.847Z" transform="translate(-4.882 -2)"/><path class="b" d="M23.712,38A1.712,1.712,0,0,0,22,39.712v3.424a1.712,1.712,0,1,0,3.424,0V39.712A1.712,1.712,0,0,0,23.712,38Z" transform="translate(-4.882 -7.188)"/><path class="b" d="M36.181,13.2l2.482-2.4a1.969,1.969,0,0,0,0-2.482,1.969,1.969,0,0,0-2.482,0l-2.4,2.482a1.712,1.712,0,1,0,2.4,2.4Z" transform="translate(-6.481 -2.848)"/><path class="b" d="M10.808,33.785l-2.482,2.4a1.969,1.969,0,0,0,0,2.482,1.969,1.969,0,0,0,2.482,0l2.4-2.482a1.712,1.712,0,1,0-2.4-2.4Z" transform="translate(-2.848 -6.481)"/><path class="b" d="M43.135,22H39.712a1.712,1.712,0,1,0,0,3.424h3.424a1.712,1.712,0,1,0,0-3.424Z" transform="translate(-7.188 -4.882)"/><path class="b" d="M8.847,23.712A1.712,1.712,0,0,0,7.135,22H3.712a1.712,1.712,0,0,0,0,3.424H7.135A1.712,1.712,0,0,0,8.847,23.712Z" transform="translate(-2 -4.882)"/><path class="b" d="M36.181,33.785a1.712,1.712,0,1,0-2.4,2.4l2.4,2.482a1.8,1.8,0,1,0,2.482-2.482Z" transform="translate(-6.481 -6.481)"/><path class="b" d="M10.808,13.2a1.712,1.712,0,0,0,2.4-2.4l-2.4-2.482a1.969,1.969,0,0,0-2.482,0,1.969,1.969,0,0,0,0,2.482Z" transform="translate(-2.848 -2.848)"/><path class="b" d="M22.559,14a8.559,8.559,0,1,0,8.559,8.559A8.559,8.559,0,0,0,22.559,14Zm0,13.694a5.135,5.135,0,1,1,5.135-5.135A5.135,5.135,0,0,1,22.559,27.694Z" transform="translate(-3.729 -3.729)"/></g></g></svg>