<svg xmlns="http://www.w3.org/2000/svg" width="40" height="40" viewBox="0 0 40 40"><defs><style>.a{fill:none;}.b{fill:#333333;}</style></defs><g transform="translate(0 0.391)"><rect class="a" width="40" height="40" transform="translate(0 -0.391)"/><g transform="translate(2.476 3.301)"><path class="b" d="M31.882,14.728H26.105L26.436,12c.5-4.043-.33-7.262-2.971-8h-.248a1.65,1.65,0,0,0-1.238.99S16.2,17.2,13.728,17.2H4.65A1.65,1.65,0,0,0,3,18.854v13.2a1.65,1.65,0,0,0,1.65,1.65H15.625a1.32,1.32,0,0,1,.99.33c1.155.825,5.034,2.971,7.014,2.971h4.126c4.869,0,9.077-3.3,9.49-9.82h0l.413-6.684a5.529,5.529,0,0,0-5.776-5.776ZM6.3,20.5h4.951v9.9H6.3ZM33.945,26.94h0c-.33,4.291-2.641,6.767-6.189,6.767H23.63A18.147,18.147,0,0,1,18.6,31.4a4.786,4.786,0,0,0-2.971-.99H14.553V20.5c1.568-.33,4.126-1.815,8.665-10.562a13.368,13.368,0,0,1-.083,1.733L22.8,14.4l-.413,3.631h9.49a2.228,2.228,0,0,1,2.476,2.393Z" transform="translate(-3 -4)"/></g></g></svg>