<svg xmlns="http://www.w3.org/2000/svg" width="216" height="128.972" viewBox="0 0 216 128.972"><defs><style>.a{fill:#626262;}.b{fill:#f44336;}.c{fill:#393939;}.d{fill:#fff;}.e{fill:#3f3d56;}.f{fill:#ffb8b8;}.g{fill:#e6e6e6;}</style></defs><g transform="translate(-323 -25)"><circle class="a" cx="11.131" cy="11.131" r="11.131" transform="translate(329.75 31.131)"/><circle class="b" cx="27.344" cy="27.344" r="27.344" transform="translate(323 42.235)"/><path class="c" d="M106.348,253.682h-5.6L103.3,167.2Z" transform="translate(246.632 -101.74)"/><path class="c" d="M111.018,208.876l6.013-8.319-6.095,10.378-.659-1.153Z" transform="translate(239.408 -127.024)"/><path class="c" d="M91.783,243.592l-6.012-8.318,6.095,10.378.659-1.153Z" transform="translate(257.984 -153.34)"/><path class="c" d="M809.962,254.058h-5.6l2.553-86.481Z" transform="translate(-286.717 -102.025)"/><path class="c" d="M814.632,209.252l6.013-8.319-6.095,10.378-.659-1.153Z" transform="translate(-293.941 -127.309)"/><path class="c" d="M795.4,243.969l-6.012-8.319,6.095,10.378.659-1.153Z" transform="translate(-275.365 -153.625)"/><circle class="c" cx="50.939" cy="50.939" r="50.939" transform="translate(383.146 50.141)"/><circle class="d" cx="46.722" cy="46.722" r="46.722" transform="translate(387.363 54.358)"/><circle class="c" cx="6.241" cy="6.241" r="6.241" transform="translate(427.676 95.008)"/><rect class="c" width="2.699" height="5.06" transform="translate(432.567 56.719)"/><rect class="c" width="2.699" height="5.06" transform="translate(432.567 140.718)"/><rect class="c" width="2.699" height="5.06" transform="translate(394.447 99.899) rotate(90)"/><rect class="e" width="2.699" height="5.06" transform="translate(478.446 99.899) rotate(90)"/><path class="c" d="M450.924,309.767l2.306-5.274,28.9,16.005Z" transform="translate(-18.807 -205.809)"/><rect class="c" width="13.156" height="15.18" transform="translate(427.507 37.828)"/><ellipse class="c" cx="15.18" cy="4.217" rx="15.18" ry="4.217" transform="translate(418.905 33.611)"/><path class="f" d="M714.855,527.585l-.843,1.181s-3.88,4.554-4.048,2.361,2.867-3.711,2.867-3.711l1.687-1.012Z" transform="translate(-252.349 -417.481)"/><path class="f" d="M825.623,547.117l.706,1.268s2.456,5.455.4,4.669-2.127-4.18-2.127-4.18l-.193-1.958Z" transform="translate(-339.107 -433.03)"/><circle class="c" cx="5.136" cy="5.136" r="5.136" transform="translate(477.583 81.34)"/><path class="f" d="M811.751,607.157l.675,4.385v1.349h3.88V611.2s.169-3.036-.506-3.879S811.751,607.157,811.751,607.157Z" transform="translate(-329.51 -478.499)"/><path class="f" d="M783.173,607.157l.675,4.385v1.349h3.879V611.2s.169-3.036-.506-3.879S783.173,607.157,783.173,607.157Z" transform="translate(-307.848 -478.499)"/><path class="b" d="M791.364,462.384a1.726,1.726,0,0,0-.473,2.575c1.019,1.789,7,20.3,7,20.3l3.45-.979-3.042-11.7-1.742-7.357Z" transform="translate(-313.428 -368.953)"/><circle class="f" cx="3.879" cy="3.879" r="3.879" transform="translate(478.277 84.044)"/><path class="f" d="M806.041,442.063l-.506,7.928-3.542-2.53s1.181-4.723.843-5.06Z" transform="translate(-322.113 -353.55)"/><path class="b" d="M793.19,462.3l-3.816-2.826s-1.75-.716-2.256.127-3.036,13.325-1.687,15.686c0,0,7.253,1.518,8.771.675l.675-4.385s.843-2.7-.506-4.385Z" transform="translate(-309.263 -366.528)"/><path class="b" d="M741.8,460.637a1.726,1.726,0,0,0-2.53.675c-1.181,1.687-15.349,15.012-15.349,15.012l2.361,2.7,9.277-7.759,5.9-4.723Z" transform="translate(-262.937 -367.4)"/><path class="c" d="M790.34,525.466s-8.349-1.6-9.193-.422l-.169,1.855s-1.855,3.542-.843,9.277a28.239,28.239,0,0,1,.337,9.277,37.3,37.3,0,0,1,7.928,0c3.373.506,3.88,0,3.88,0Z" transform="translate(-305.316 -416.121)"/><path class="c" d="M816.643,628.868l-4.892.169,1.687,12.65s-1.349,5.4.169,5.735a17.108,17.108,0,0,0,3.2.337,4.648,4.648,0,0,0,3.2,1.349,9.449,9.449,0,0,0,3.2-1.012,1.048,1.048,0,0,0-.843-1.349c-1.181-.337-4.385-1.349-5.06-4.892Z" transform="translate(-329.51 -495.15)"/><path class="c" d="M788.064,628.868l-4.891.169,1.687,12.65s-1.349,5.4.169,5.735a17.109,17.109,0,0,0,3.2.337,4.648,4.648,0,0,0,3.2,1.349,9.447,9.447,0,0,0,3.2-1.012,1.048,1.048,0,0,0-.843-1.349c-1.181-.337-4.385-1.349-5.06-4.892Z" transform="translate(-307.848 -495.15)"/><circle class="c" cx="2.125" cy="2.125" r="2.125" transform="translate(482.39 78.945)"/><path class="c" d="M826.9,399.889a2.125,2.125,0,0,0-1.9-2.114,2.125,2.125,0,1,1,0,4.227A2.126,2.126,0,0,0,826.9,399.889Z" transform="translate(-339.548 -319.969)"/><ellipse class="c" cx="3.542" cy="2.125" rx="3.542" ry="2.125" transform="translate(478.579 83.262)"/><path class="g" d="M913.241,189.8a10.811,10.811,0,0,0-21.212-2.279c-.131,0-.262-.01-.394-.01a10.813,10.813,0,0,0-10.373,7.763,7.641,7.641,0,0,0-9.067,2.257H905.92a7.313,7.313,0,0,0,7.329-7.571Q913.245,189.875,913.241,189.8Z" transform="translate(-375.328 -154.594)"/><circle class="g" cx="2.904" cy="2.904" r="2.904" transform="translate(506.816 52.147)"/><circle class="g" cx="2.418" cy="2.418" r="2.418" transform="translate(516.07 45.786)"/><circle class="g" cx="2.904" cy="2.904" r="2.904" transform="translate(527.385 58.438)"/><circle class="g" cx="2.904" cy="2.904" r="2.904" transform="translate(505.364 71.748)"/><circle class="g" cx="2.904" cy="2.904" r="2.904" transform="translate(527.385 88.444)"/><circle class="g" cx="1.21" cy="1.21" r="1.21" transform="translate(531.74 78.523)"/><circle class="g" cx="1.21" cy="1.21" r="1.21" transform="translate(523.997 49.485)"/><circle class="g" cx="1.21" cy="1.21" r="1.21" transform="translate(519.883 79.491)"/><circle class="g" cx="1.21" cy="1.21" r="1.21" transform="translate(520.851 78.281)"/><circle class="g" cx="1.21" cy="1.21" r="1.21" transform="translate(521.577 77.071)"/><circle class="g" cx="1.21" cy="1.21" r="1.21" transform="translate(518.673 87.235)"/><circle class="g" cx="1.21" cy="1.21" r="1.21" transform="translate(536.58 100.786)"/><circle class="g" cx="1.21" cy="1.21" r="1.21" transform="translate(510.688 101.512)"/><circle class="g" cx="1.21" cy="1.21" r="1.21" transform="translate(512.14 64.246)"/><circle class="g" cx="1.21" cy="1.21" r="1.21" transform="translate(517.705 86.025)"/><circle class="g" cx="1.21" cy="1.21" r="1.21" transform="translate(516.495 84.089)"/></g></svg>