<svg xmlns="http://www.w3.org/2000/svg" width="39" height="39" viewBox="0 0 39 39"><defs><style>.a{fill:none;}.b{fill:#393939;}</style></defs><rect class="a" width="39" height="39"/><g transform="translate(1.625 1.625)"><path class="b" d="M22.5,10A6.5,6.5,0,1,0,29,16.5,6.5,6.5,0,0,0,22.5,10Zm0,9.75a3.25,3.25,0,1,1,3.25-3.25A3.25,3.25,0,0,1,22.5,19.75Z" transform="translate(-4.625 -3.5)"/><path class="b" d="M19.875,2A17.794,17.794,0,1,0,32.539,7.211,17.875,17.875,0,0,0,19.875,2ZM9.963,30.6A21.45,21.45,0,0,1,19.875,28a21.45,21.45,0,0,1,9.913,2.6,14.544,14.544,0,0,1-19.825,0Zm22.019-2.519h0A24.944,24.944,0,0,0,19.875,24.75,24.944,24.944,0,0,0,7.769,28.081h0A14.381,14.381,0,0,1,5.25,19.875a14.625,14.625,0,1,1,29.25,0,14.381,14.381,0,0,1-2.519,8.206Z" transform="translate(-2 -2)"/></g></svg>