<svg xmlns="http://www.w3.org/2000/svg" width="28" height="29" viewBox="0 0 28 29"><defs><style>.a{fill:none;}.b{fill:#393939;}</style></defs><g transform="translate(-0.5)"><rect class="a" width="28" height="29" transform="translate(0.5)"/><g transform="translate(1.188 1.174)"><path class="b" d="M24.928,23.35a1.128,1.128,0,0,0-1.662,0l-5.106,5.106-2.138-2.137a1.187,1.187,0,0,0-1.841.119,1.306,1.306,0,0,0,.237,1.6l2.909,2.909a1.128,1.128,0,0,0,1.663,0l5.937-5.938a1.128,1.128,0,0,0,0-1.663Zm0,0a1.128,1.128,0,0,0-1.662,0l-5.106,5.106-2.138-2.137a1.187,1.187,0,0,0-1.841.119,1.306,1.306,0,0,0,.237,1.6l2.909,2.909a1.128,1.128,0,0,0,1.663,0l5.937-5.938a1.128,1.128,0,0,0,0-1.663Z" transform="translate(-6.878 -10.512)"/><path class="b" d="M26.938,5.553H21.594V3.238a1.247,1.247,0,0,0-1.009-1.247,1.187,1.187,0,0,0-1.366,1.187V5.553H10.906V3.238A1.247,1.247,0,0,0,9.9,1.991,1.188,1.188,0,0,0,8.531,3.178V5.553H3.188A1.188,1.188,0,0,0,2,6.741v19a1.187,1.187,0,0,0,1.188,1.188h23.75a1.188,1.188,0,0,0,1.188-1.187v-19A1.188,1.188,0,0,0,26.938,5.553Zm-1.187,19H4.375V12.678H25.75Zm0-14.25H4.375V7.928H25.75Z" transform="translate(-2 -1.977)"/></g></g></svg>