<svg xmlns="http://www.w3.org/2000/svg" width="42" height="42" viewBox="0 0 42 42"><defs><style>.a{fill:none;}.b{fill:#393939;}</style></defs><rect class="a" width="42" height="42"/><rect class="a" width="42" height="42"/><g transform="translate(6.999 1.723)"><path class="b" d="M36,16a14,14,0,1,0-21.875,11.55V38.659a1.838,1.838,0,0,0,1.75,1.838,1.312,1.312,0,0,0,.962-.35L22,36.121l5.163,4.025a1.313,1.313,0,0,0,.963.35,1.837,1.837,0,0,0,1.75-1.837V27.546A14,14,0,0,0,36,16ZM11.5,16A10.5,10.5,0,1,1,22,26.5,10.5,10.5,0,0,1,11.5,16ZM26.375,35.071,22.525,32.1a.787.787,0,0,0-1.05,0l-3.85,2.975V29.3A14.788,14.788,0,0,0,22,30a14.787,14.787,0,0,0,4.375-.7Z" transform="translate(-7.998 -1.97)"/><path class="b" d="M20.1,18.742l-.437,2.713a.963.963,0,0,0,1.313.963l2.275-1.663,2.275,1.662a.962.962,0,0,0,1.312-.962L26.4,18.742l1.837-1.75a.963.963,0,0,0-.525-1.575l-2.538-.35-1.137-2.538a.875.875,0,0,0-1.575,0l-1.137,2.537-2.538.35a.963.963,0,0,0-.525,1.575Z" transform="translate(-9.252 -3.228)"/></g></svg>