<svg xmlns="http://www.w3.org/2000/svg" width="37" height="37" viewBox="0 0 37 37"><defs><style>.a{fill:none;}.b{fill:#393939;}</style></defs><g transform="translate(0 -0.371)"><rect class="a" width="37" height="37" transform="translate(0 0.371)"/><g transform="translate(3.114 3.114)"><path class="b" d="M17.139,28.591,12.467,24a1.635,1.635,0,0,1-.156-2.1,1.479,1.479,0,0,1,2.336-.156l3.581,3.581,9.81-9.81a1.557,1.557,0,0,1,2.18,2.18l-10.9,10.9a1.479,1.479,0,0,1-2.18,0Z" transform="translate(-5.772 -6.48)"/><path class="b" d="M32.028,7.114V32.028H7.114V7.114H32.028M33.585,4H5.557A1.557,1.557,0,0,0,4,5.557V33.585a1.557,1.557,0,0,0,1.557,1.557H33.585a1.557,1.557,0,0,0,1.557-1.557V5.557A1.557,1.557,0,0,0,33.585,4Z" transform="translate(-4 -4)"/></g></g></svg>